<svg id="svg" version="1.1" width="400" height="86.16462346760069" viewBox="0 0 400 86.16462346760069" xmlns="http://www.w3.org/2000/svg" xmlns:xlink="http://www.w3.org/1999/xlink" ><g id="svgg"><path id="path0" d="M43.806 0.165 C 43.775 0.256,43.487 0.352,43.167 0.377 C 42.708 0.414,42.572 0.503,42.530 0.795 C 42.492 1.063,42.364 1.167,42.072 1.167 C 41.778 1.167,41.667 1.258,41.667 1.500 C 41.667 1.752,41.555 1.834,41.208 1.836 C 40.688 1.839,40.278 2.049,40.361 2.269 C 40.392 2.350,40.248 2.441,40.042 2.470 C 39.801 2.504,39.667 2.638,39.667 2.845 C 39.667 3.133,39.491 3.244,39.125 3.186 C 39.056 3.176,39.000 3.317,39.000 3.500 C 39.000 3.683,38.925 3.843,38.833 3.854 C 38.742 3.866,38.573 3.884,38.458 3.896 C 38.344 3.907,38.241 4.010,38.229 4.125 C 38.218 4.240,38.199 4.400,38.188 4.481 C 38.176 4.562,38.017 4.667,37.833 4.715 C 37.650 4.763,37.500 4.913,37.500 5.048 C 37.500 5.184,37.350 5.334,37.167 5.382 C 36.983 5.430,36.833 5.580,36.833 5.715 C 36.833 5.850,36.683 6.000,36.500 6.048 C 36.317 6.096,36.167 6.246,36.167 6.382 C 36.167 6.517,36.017 6.667,35.833 6.715 C 35.650 6.763,35.500 6.922,35.500 7.068 C 35.500 7.214,35.425 7.343,35.333 7.354 C 35.242 7.366,35.073 7.384,34.958 7.396 C 34.844 7.407,34.741 7.510,34.729 7.625 C 34.718 7.740,34.699 7.900,34.688 7.981 C 34.676 8.062,34.517 8.167,34.333 8.215 C 34.150 8.263,34.000 8.413,34.000 8.548 C 34.000 8.684,33.850 8.834,33.667 8.882 C 33.483 8.930,33.333 9.088,33.333 9.234 C 33.333 9.389,33.194 9.500,33.000 9.500 C 32.785 9.500,32.667 9.611,32.667 9.814 C 32.667 9.988,32.518 10.167,32.333 10.215 C 32.134 10.267,32.000 10.442,32.000 10.651 C 32.000 10.888,31.894 11.000,31.669 11.000 C 31.411 11.000,31.314 11.148,31.231 11.667 C 31.150 12.169,31.047 12.333,30.812 12.333 C 30.618 12.333,30.500 12.452,30.500 12.647 C 30.500 12.821,30.351 13.000,30.167 13.048 C 29.983 13.096,29.833 13.255,29.833 13.401 C 29.833 13.556,29.694 13.667,29.500 13.667 C 29.256 13.667,29.167 13.778,29.167 14.083 C 29.167 14.387,29.077 14.500,28.839 14.500 C 28.615 14.500,28.541 14.580,28.606 14.750 C 28.659 14.888,28.619 15.000,28.518 15.000 C 28.416 15.000,28.333 15.179,28.333 15.397 C 28.333 15.654,28.216 15.825,28.000 15.882 C 27.817 15.930,27.667 16.088,27.667 16.234 C 27.667 16.389,27.527 16.500,27.333 16.500 C 27.126 16.500,27.000 16.611,27.000 16.793 C 27.000 16.955,26.850 17.180,26.667 17.295 C 26.454 17.427,26.333 17.683,26.333 18.001 C 26.333 18.447,26.191 18.583,25.792 18.520 C 25.723 18.509,25.667 18.679,25.667 18.899 C 25.667 19.185,25.549 19.327,25.251 19.402 C 25.022 19.459,24.844 19.561,24.854 19.628 C 24.932 20.134,24.799 20.667,24.595 20.667 C 24.463 20.667,24.309 20.813,24.253 20.991 C 24.196 21.170,24.003 21.363,23.825 21.419 C 23.646 21.476,23.500 21.662,23.500 21.833 C 23.500 22.004,23.359 22.189,23.186 22.244 C 23.013 22.299,22.875 22.435,22.879 22.547 C 22.901 23.200,22.799 23.470,22.500 23.548 C 22.297 23.601,22.167 23.776,22.167 23.994 C 22.167 24.192,22.092 24.307,22.000 24.250 C 21.908 24.193,21.833 24.231,21.833 24.333 C 21.833 24.436,21.767 24.479,21.687 24.429 C 21.606 24.379,21.493 24.575,21.436 24.863 C 21.378 25.151,21.179 25.493,20.994 25.623 C 20.809 25.752,20.669 25.947,20.682 26.054 C 20.753 26.632,20.635 26.969,20.333 27.048 C 20.150 27.096,20.000 27.255,20.000 27.401 C 20.000 27.547,19.896 27.667,19.768 27.667 C 19.499 27.667,19.333 28.022,19.333 28.597 C 19.333 28.884,19.241 29.000,19.011 29.000 C 18.783 29.000,18.673 29.135,18.636 29.458 C 18.601 29.767,18.492 29.910,18.303 29.895 C 18.102 29.880,17.992 30.054,17.916 30.504 C 17.844 30.931,17.706 31.161,17.488 31.218 C 17.247 31.281,17.167 31.450,17.167 31.890 C 17.167 32.331,17.084 32.504,16.833 32.583 C 16.650 32.642,16.500 32.829,16.500 32.999 C 16.500 33.169,16.369 33.334,16.209 33.365 C 16.048 33.396,15.910 33.533,15.901 33.669 C 15.892 33.805,15.873 34.085,15.859 34.292 C 15.842 34.532,15.726 34.667,15.534 34.667 C 15.308 34.667,15.225 34.816,15.194 35.277 C 15.143 36.032,15.052 36.188,14.696 36.129 C 14.419 36.084,14.389 36.161,14.353 37.042 C 14.338 37.382,14.248 37.500,14.000 37.500 C 13.793 37.500,13.667 37.611,13.667 37.793 C 13.667 37.955,13.517 38.180,13.333 38.295 C 13.123 38.426,13.000 38.683,13.000 38.990 C 13.000 39.329,12.900 39.509,12.670 39.582 C 12.489 39.640,12.347 39.739,12.356 39.802 C 12.447 40.440,12.295 40.971,12.000 41.048 C 11.746 41.115,11.667 41.276,11.667 41.723 C 11.667 42.205,11.600 42.320,11.292 42.363 C 10.959 42.411,10.911 42.526,10.867 43.375 L 10.817 44.333 11.575 44.333 C 12.222 44.333,12.333 44.284,12.333 44.000 C 12.333 43.778,12.444 43.667,12.667 43.667 C 12.882 43.667,13.000 43.556,13.000 43.353 C 13.000 43.179,13.149 43.000,13.333 42.952 C 13.517 42.904,13.667 42.745,13.667 42.599 C 13.667 42.444,13.806 42.333,14.000 42.333 C 14.215 42.333,14.333 42.222,14.333 42.019 C 14.333 41.846,14.482 41.667,14.667 41.618 C 14.866 41.566,15.000 41.391,15.000 41.182 C 15.000 40.939,15.106 40.833,15.349 40.833 C 15.558 40.833,15.733 40.699,15.785 40.500 C 15.840 40.288,16.012 40.167,16.256 40.167 C 16.800 40.167,17.167 40.000,17.167 39.752 C 17.167 39.635,17.317 39.500,17.500 39.452 C 17.683 39.404,17.833 39.245,17.833 39.099 C 17.833 38.944,17.973 38.833,18.167 38.833 C 18.385 38.833,18.500 38.722,18.500 38.512 C 18.500 38.305,18.634 38.171,18.875 38.137 C 19.116 38.102,19.269 37.949,19.303 37.708 C 19.347 37.400,19.462 37.333,19.944 37.333 C 20.391 37.333,20.552 37.254,20.618 37.000 C 20.667 36.816,20.846 36.667,21.019 36.667 C 21.222 36.667,21.333 36.549,21.333 36.333 C 21.333 36.031,21.843 35.879,22.532 35.977 C 22.595 35.986,22.693 35.845,22.751 35.663 C 22.809 35.482,23.001 35.333,23.178 35.333 C 23.389 35.333,23.500 35.218,23.500 35.000 C 23.500 34.748,23.612 34.666,23.958 34.664 C 24.426 34.662,24.873 34.465,24.848 34.273 C 24.801 33.926,24.868 33.833,25.167 33.833 C 25.389 33.833,25.500 33.722,25.500 33.500 C 25.500 33.221,25.611 33.167,26.182 33.167 C 26.724 33.167,26.882 33.098,26.952 32.833 C 27.020 32.572,27.179 32.500,27.686 32.500 C 28.222 32.500,28.333 32.443,28.333 32.167 C 28.333 31.888,28.444 31.833,29.016 31.833 C 29.558 31.833,29.716 31.765,29.785 31.500 C 29.853 31.239,30.012 31.167,30.519 31.167 C 31.099 31.167,31.167 31.123,31.167 30.750 C 31.167 30.351,31.210 30.333,32.182 30.333 C 33.058 30.333,33.210 30.287,33.285 30.000 C 33.353 29.739,33.512 29.667,34.019 29.667 C 34.556 29.667,34.667 29.609,34.667 29.333 C 34.667 29.034,34.778 29.000,35.750 29.000 C 36.722 29.000,36.833 28.966,36.833 28.667 C 36.833 28.361,36.944 28.333,38.167 28.333 C 39.389 28.333,39.500 28.306,39.500 28.000 C 39.500 27.694,39.611 27.667,40.849 27.667 C 42.058 27.667,42.207 27.632,42.285 27.333 C 42.362 27.038,44.607 26.806,45.708 26.980 C 45.777 26.991,45.833 26.812,45.833 26.583 L 45.833 26.167 53.917 26.167 C 61.737 26.167,62.000 26.177,62.000 26.482 C 62.000 26.925,62.307 27.000,64.104 27.000 C 65.506 27.000,65.676 27.032,65.632 27.288 C 65.578 27.605,65.576 27.605,67.273 27.641 C 68.295 27.663,68.460 27.708,68.440 27.958 C 68.414 28.281,68.440 28.287,70.042 28.314 C 71.049 28.331,71.167 28.368,71.167 28.667 C 71.167 28.944,71.278 29.000,71.833 29.000 L 72.500 29.000 72.500 27.667 C 72.500 26.444,72.472 26.333,72.167 26.333 C 71.883 26.333,71.833 26.222,71.833 25.583 C 71.833 24.944,71.784 24.833,71.500 24.833 C 71.196 24.833,71.040 24.301,71.147 23.625 C 71.158 23.556,70.979 23.500,70.750 23.500 C 70.367 23.500,70.333 23.439,70.333 22.750 C 70.333 22.111,70.284 22.000,70.000 22.000 C 69.722 22.000,69.667 21.889,69.667 21.333 C 69.667 20.967,69.610 20.676,69.542 20.686 C 69.111 20.754,69.000 20.614,69.000 20.000 C 69.000 19.444,68.944 19.333,68.667 19.333 C 68.420 19.333,68.327 19.214,68.308 18.875 C 68.294 18.623,68.273 18.304,68.262 18.167 C 68.251 18.027,68.115 17.938,67.954 17.966 C 67.699 18.009,67.589 17.830,67.646 17.461 C 67.656 17.394,67.478 17.292,67.249 17.235 C 66.905 17.149,66.833 17.030,66.833 16.550 C 66.833 16.109,66.753 15.948,66.500 15.882 C 66.251 15.817,66.167 15.654,66.167 15.242 C 66.167 14.836,66.078 14.661,65.833 14.583 C 65.650 14.525,65.500 14.371,65.500 14.240 C 65.500 14.110,65.350 13.909,65.167 13.795 C 64.964 13.668,64.833 13.406,64.833 13.127 C 64.833 12.874,64.754 12.667,64.657 12.667 C 64.560 12.667,64.526 12.593,64.582 12.502 C 64.641 12.407,64.574 12.380,64.425 12.437 C 64.236 12.509,64.138 12.401,64.066 12.039 C 64.001 11.716,63.871 11.550,63.692 11.563 C 63.525 11.575,63.396 11.435,63.363 11.208 C 63.329 10.967,63.195 10.833,62.988 10.833 C 62.724 10.833,62.667 10.714,62.667 10.167 C 62.667 9.625,62.608 9.500,62.353 9.500 C 62.179 9.500,62.000 9.351,61.952 9.167 C 61.904 8.983,61.745 8.833,61.599 8.833 C 61.444 8.833,61.333 8.694,61.333 8.500 C 61.333 8.278,61.222 8.167,61.000 8.167 C 60.758 8.167,60.667 8.056,60.667 7.760 C 60.667 7.536,60.590 7.306,60.497 7.248 C 60.404 7.191,60.378 7.062,60.440 6.963 C 60.506 6.855,60.474 6.830,60.359 6.901 C 60.253 6.966,60.167 6.936,60.167 6.833 C 60.167 6.731,60.092 6.693,60.000 6.750 C 59.855 6.840,59.754 6.502,59.814 6.125 C 59.824 6.056,59.683 6.000,59.500 6.000 C 59.278 6.000,59.167 5.889,59.167 5.667 C 59.167 5.444,59.056 5.333,58.833 5.333 C 58.535 5.333,58.422 5.160,58.480 4.792 C 58.491 4.723,58.315 4.667,58.089 4.667 C 57.805 4.667,57.705 4.594,57.766 4.434 C 57.816 4.306,57.714 4.100,57.542 3.976 C 57.369 3.852,57.179 3.618,57.119 3.457 C 57.058 3.296,56.951 3.173,56.880 3.185 C 56.537 3.241,56.333 3.145,56.333 2.927 C 56.333 2.794,56.247 2.633,56.141 2.567 C 56.012 2.488,55.993 2.526,56.082 2.683 C 56.190 2.872,56.173 2.877,55.991 2.708 C 55.868 2.594,55.594 2.500,55.383 2.500 C 55.151 2.500,55.000 2.400,55.000 2.246 C 55.000 2.106,54.813 1.920,54.583 1.833 C 54.354 1.746,54.167 1.561,54.167 1.421 C 54.167 1.235,53.986 1.167,53.500 1.167 C 52.900 1.167,52.833 1.125,52.833 0.750 C 52.833 0.375,52.767 0.333,52.167 0.333 C 51.800 0.333,51.500 0.258,51.500 0.167 C 51.500 -0.060,43.882 -0.061,43.806 0.165 M58.500 49.673 C 58.500 49.976,58.370 50.001,56.708 50.019 C 54.361 50.044,54.409 50.037,54.466 50.375 C 54.507 50.622,54.372 50.670,53.591 50.688 C 52.249 50.718,52.255 50.716,52.197 51.125 C 52.148 51.469,51.207 51.664,50.292 51.520 C 50.223 51.509,50.167 51.650,50.167 51.833 C 50.167 52.136,49.657 52.288,48.968 52.190 C 48.905 52.181,48.807 52.322,48.749 52.503 C 48.690 52.689,48.485 52.842,48.280 52.853 C 47.494 52.894,47.417 52.927,47.440 53.208 C 47.456 53.411,47.342 53.500,47.065 53.500 C 46.778 53.500,46.667 53.593,46.667 53.833 C 46.667 54.088,46.549 54.172,46.167 54.188 C 45.322 54.223,45.251 54.243,45.229 54.458 C 45.218 54.573,45.199 54.742,45.188 54.833 C 45.176 54.925,45.017 55.000,44.833 55.000 C 44.611 55.000,44.500 55.111,44.500 55.333 C 44.500 55.605,44.389 55.667,43.901 55.667 C 43.442 55.667,43.282 55.745,43.215 56.000 C 43.167 56.184,42.988 56.333,42.814 56.333 C 42.611 56.333,42.500 56.451,42.500 56.667 C 42.500 56.850,42.422 57.000,42.328 57.000 C 42.104 57.000,41.000 58.104,41.000 58.328 C 41.000 58.422,40.850 58.500,40.667 58.500 C 40.444 58.500,40.333 58.611,40.333 58.833 C 40.333 59.027,40.222 59.167,40.068 59.167 C 39.922 59.167,39.763 59.317,39.715 59.500 C 39.667 59.684,39.488 59.833,39.314 59.833 C 39.062 59.833,39.000 59.957,39.000 60.460 C 39.000 60.951,38.918 61.123,38.625 61.252 C 38.302 61.394,38.250 61.543,38.250 62.333 L 38.250 63.250 39.023 63.300 C 39.685 63.343,39.844 63.289,40.130 62.925 C 40.418 62.560,40.596 62.500,41.399 62.500 C 42.222 62.500,42.333 62.460,42.333 62.167 C 42.333 61.652,50.745 61.643,50.879 62.158 C 50.951 62.430,51.137 62.491,52.024 62.533 C 52.913 62.575,53.080 62.630,53.060 62.875 C 53.046 63.052,53.161 63.175,53.352 63.188 C 53.525 63.199,53.742 63.227,53.833 63.250 C 53.925 63.273,54.220 63.301,54.489 63.313 C 54.820 63.327,55.012 63.441,55.083 63.667 C 55.165 63.923,55.336 64.000,55.825 64.000 C 56.321 64.000,56.480 64.073,56.548 64.333 C 56.615 64.589,56.776 64.667,57.234 64.667 C 57.671 64.667,57.833 64.739,57.833 64.932 C 57.833 65.078,57.983 65.237,58.167 65.285 C 58.470 65.364,58.573 65.536,58.520 65.875 C 58.509 65.944,58.688 66.000,58.917 66.000 C 59.216 66.000,59.333 66.090,59.333 66.319 C 59.333 66.561,59.494 66.665,60.000 66.750 C 60.506 66.835,60.667 66.939,60.667 67.181 C 60.667 67.389,60.783 67.500,61.000 67.500 C 61.222 67.500,61.333 67.611,61.333 67.833 C 61.333 68.050,61.444 68.167,61.652 68.167 C 61.893 68.167,61.998 68.327,62.082 68.823 C 62.162 69.296,62.259 69.454,62.430 69.389 C 62.571 69.334,62.667 69.401,62.667 69.553 C 62.667 69.694,62.854 69.957,63.083 70.137 C 63.313 70.317,63.500 70.585,63.500 70.732 C 63.500 70.889,63.638 71.000,63.833 71.000 C 64.072 71.000,64.173 71.118,64.188 71.417 C 64.226 72.186,64.249 72.250,64.488 72.250 C 64.729 72.250,65.045 73.066,64.872 73.239 C 64.820 73.291,64.870 73.333,64.982 73.333 C 65.094 73.333,65.133 73.420,65.067 73.526 C 64.993 73.645,65.022 73.673,65.142 73.599 C 65.334 73.480,65.472 73.692,65.583 74.279 C 65.615 74.446,65.656 74.621,65.674 74.667 C 65.692 74.712,65.695 74.812,65.682 74.887 C 65.669 74.963,65.727 74.982,65.812 74.930 C 66.016 74.804,66.167 75.229,66.167 75.930 C 66.167 76.427,66.220 76.500,66.583 76.500 C 66.993 76.500,67.000 76.523,67.000 77.823 C 67.000 78.644,67.073 79.192,67.192 79.266 C 67.321 79.345,67.341 79.307,67.252 79.151 C 67.153 78.976,67.188 78.981,67.390 79.170 C 67.539 79.309,67.690 79.684,67.724 80.003 C 67.765 80.373,67.887 80.603,68.060 80.637 C 68.211 80.667,68.333 80.831,68.333 81.001 C 68.333 81.171,68.483 81.358,68.667 81.417 C 68.850 81.475,69.000 81.667,69.000 81.845 C 69.000 82.053,69.115 82.167,69.326 82.167 C 69.566 82.167,69.680 82.320,69.761 82.751 C 69.859 83.275,69.938 83.346,70.519 83.439 C 71.060 83.526,71.167 83.607,71.167 83.938 C 71.167 84.214,71.261 84.333,71.481 84.333 C 71.654 84.333,71.833 84.482,71.882 84.667 C 71.951 84.932,72.109 85.000,72.661 85.000 C 73.126 85.000,73.315 85.061,73.238 85.185 C 73.056 85.481,73.515 85.661,74.458 85.664 C 74.940 85.666,75.333 85.742,75.333 85.833 C 75.333 85.939,76.611 86.000,78.833 86.000 C 81.056 86.000,82.333 85.939,82.333 85.833 C 82.333 85.742,82.753 85.667,83.266 85.667 C 84.058 85.667,84.211 85.617,84.285 85.333 C 84.354 85.070,84.512 85.000,85.035 85.000 C 85.558 85.000,85.716 84.930,85.785 84.667 C 85.833 84.482,86.012 84.333,86.186 84.333 C 86.405 84.333,86.500 84.214,86.500 83.938 C 86.500 83.606,86.606 83.526,87.167 83.436 C 87.681 83.354,87.833 83.255,87.833 83.003 C 87.833 82.801,87.917 82.709,88.054 82.762 C 88.198 82.817,88.352 82.615,88.493 82.187 C 88.620 81.804,88.841 81.493,89.022 81.446 C 89.196 81.400,89.333 81.216,89.333 81.028 C 89.333 80.843,89.456 80.667,89.606 80.637 C 89.780 80.603,89.902 80.373,89.942 80.003 C 89.977 79.684,90.127 79.309,90.276 79.170 C 90.479 78.981,90.513 78.976,90.414 79.151 C 90.326 79.307,90.345 79.345,90.474 79.266 C 90.593 79.192,90.667 78.649,90.667 77.842 C 90.667 76.607,90.688 76.531,91.062 76.437 C 91.453 76.339,91.458 76.309,91.465 74.178 C 91.472 72.018,91.325 71.446,90.841 71.745 C 90.727 71.816,90.666 71.489,90.664 70.802 C 90.662 69.523,90.536 69.000,90.231 69.000 C 90.068 69.000,90.000 68.777,90.000 68.250 C 90.000 67.611,89.951 67.500,89.667 67.500 C 89.363 67.500,89.190 66.744,89.314 65.958 C 89.324 65.890,89.254 65.833,89.157 65.833 C 89.060 65.833,89.035 65.746,89.101 65.638 C 89.181 65.509,89.132 65.478,88.954 65.546 C 88.756 65.622,88.674 65.533,88.635 65.199 C 88.598 64.880,88.475 64.735,88.208 64.697 C 87.892 64.652,87.833 64.541,87.833 63.988 C 87.833 63.444,87.777 63.333,87.500 63.333 C 87.222 63.333,87.167 63.222,87.167 62.667 C 87.167 62.300,87.110 62.009,87.042 62.020 C 86.656 62.081,86.500 61.955,86.500 61.583 C 86.500 61.354,86.444 61.176,86.375 61.186 C 86.006 61.245,85.833 61.132,85.833 60.833 C 85.833 60.611,85.722 60.500,85.500 60.500 C 85.317 60.500,85.167 60.391,85.167 60.258 C 85.167 59.801,84.777 59.153,84.554 59.238 C 84.408 59.294,84.333 59.184,84.333 58.911 C 84.333 58.611,84.243 58.500,84.000 58.500 C 83.776 58.500,83.667 58.389,83.667 58.163 C 83.667 57.956,83.505 57.764,83.250 57.667 C 83.021 57.580,82.833 57.386,82.833 57.236 C 82.833 57.063,82.743 56.999,82.583 57.060 C 82.446 57.113,82.333 57.078,82.333 56.983 C 82.333 56.649,81.853 56.333,81.345 56.333 C 80.944 56.333,80.833 56.261,80.833 56.000 C 80.833 55.778,80.722 55.667,80.500 55.667 C 80.278 55.667,80.167 55.556,80.167 55.333 C 80.167 55.115,80.056 55.000,79.845 55.000 C 79.638 55.000,79.504 54.866,79.470 54.625 C 79.427 54.325,79.294 54.240,78.800 54.199 C 78.363 54.162,78.153 54.053,78.080 53.824 C 78.024 53.646,77.833 53.500,77.655 53.500 C 77.475 53.500,77.333 53.386,77.333 53.240 C 77.333 53.097,77.258 53.027,77.167 53.083 C 77.075 53.140,77.000 53.107,77.000 53.010 C 77.000 52.913,76.944 52.842,76.875 52.853 C 76.432 52.923,76.000 52.799,76.000 52.601 C 76.000 52.321,75.641 52.167,74.986 52.167 C 74.621 52.167,74.500 52.089,74.500 51.852 C 74.500 51.679,74.406 51.541,74.292 51.545 C 72.979 51.594,72.521 51.488,72.470 51.125 C 72.413 50.724,72.385 50.715,71.024 50.686 C 70.327 50.671,70.151 50.615,70.222 50.430 C 70.359 50.074,69.976 50.000,67.986 50.000 C 66.290 50.000,66.167 49.978,66.167 49.673 C 66.167 49.358,66.030 49.346,62.333 49.346 C 58.637 49.346,58.500 49.358,58.500 49.673 " stroke="none" fill="#d0cee4" fill-rule="evenodd"></path><path id="path1" d="M52.215 30.167 C 52.131 30.488,51.988 30.500,48.314 30.500 C 44.611 30.500,44.500 30.510,44.500 30.833 C 44.500 31.146,44.389 31.167,42.750 31.167 C 41.111 31.167,41.000 31.188,41.000 31.500 C 41.000 31.806,40.889 31.833,39.651 31.833 C 38.442 31.833,38.293 31.868,38.215 32.167 C 38.141 32.450,37.987 32.500,37.189 32.502 C 35.932 32.505,35.500 32.637,35.500 33.019 C 35.500 33.280,35.373 33.333,34.750 33.333 C 34.111 33.333,34.000 33.383,34.000 33.667 C 34.000 33.963,33.889 34.000,33.000 34.000 C 32.111 34.000,32.000 34.037,32.000 34.333 C 32.000 34.617,31.889 34.667,31.250 34.667 C 30.611 34.667,30.500 34.716,30.500 35.000 C 30.500 35.278,30.389 35.333,29.833 35.333 C 29.284 35.333,29.167 35.390,29.167 35.657 C 29.167 35.919,29.031 35.991,28.458 36.032 C 27.869 36.075,27.741 36.147,27.697 36.458 C 27.652 36.775,27.541 36.833,26.988 36.833 C 26.444 36.833,26.333 36.890,26.333 37.167 C 26.333 37.446,26.222 37.500,25.651 37.500 C 25.109 37.500,24.951 37.568,24.882 37.833 C 24.817 38.082,24.654 38.167,24.242 38.167 C 23.836 38.167,23.661 38.255,23.583 38.500 C 23.525 38.683,23.333 38.833,23.155 38.833 C 22.952 38.833,22.833 38.948,22.833 39.145 C 22.833 39.381,22.669 39.484,22.167 39.564 C 21.752 39.630,21.500 39.760,21.500 39.907 C 21.500 40.037,21.331 40.167,21.125 40.197 C 20.884 40.231,20.731 40.384,20.697 40.625 C 20.663 40.866,20.529 41.000,20.322 41.000 C 20.111 41.000,20.000 41.115,20.000 41.333 C 20.000 41.605,19.889 41.667,19.401 41.667 C 18.942 41.667,18.782 41.745,18.715 42.000 C 18.665 42.192,18.488 42.333,18.298 42.333 C 18.109 42.333,17.932 42.475,17.882 42.667 C 17.834 42.850,17.684 43.000,17.548 43.000 C 17.413 43.000,17.265 43.143,17.219 43.318 C 17.173 43.493,16.993 43.673,16.818 43.719 C 16.633 43.767,16.500 43.948,16.500 44.151 C 16.500 44.389,16.394 44.500,16.167 44.500 C 15.944 44.500,15.833 44.611,15.833 44.833 C 15.833 45.105,15.722 45.167,15.234 45.167 C 14.776 45.167,14.615 45.245,14.548 45.500 C 14.500 45.683,14.376 45.834,14.272 45.835 C 13.859 45.839,13.000 46.947,13.000 47.476 C 13.000 47.889,12.929 48.000,12.667 48.000 C 12.444 48.000,12.333 48.111,12.333 48.333 C 12.333 48.556,12.222 48.667,12.000 48.667 C 11.778 48.667,11.667 48.778,11.667 49.000 C 11.667 49.227,11.556 49.333,11.318 49.333 C 11.109 49.333,10.934 49.467,10.882 49.667 C 10.833 49.851,10.654 50.000,10.481 50.000 C 10.284 50.000,10.167 50.118,10.167 50.314 C 10.167 50.488,10.018 50.667,9.833 50.715 C 9.642 50.765,9.500 50.942,9.500 51.132 C 9.500 51.321,9.358 51.498,9.167 51.548 C 8.911 51.615,8.833 51.776,8.833 52.234 C 8.833 52.722,8.771 52.833,8.500 52.833 C 8.282 52.833,8.167 52.944,8.167 53.155 C 8.167 53.362,8.033 53.496,7.792 53.530 C 7.557 53.563,7.398 53.717,7.366 53.941 C 7.338 54.138,7.169 54.337,6.991 54.384 C 6.746 54.448,6.667 54.615,6.667 55.068 C 6.667 55.556,6.605 55.667,6.333 55.667 C 6.056 55.667,6.000 55.778,6.000 56.333 C 6.000 56.889,5.944 57.000,5.667 57.000 C 5.451 57.000,5.333 57.111,5.333 57.314 C 5.333 57.488,5.184 57.667,5.000 57.715 C 4.736 57.784,4.667 57.942,4.667 58.473 C 4.667 59.041,4.610 59.152,4.292 59.197 C 3.990 59.240,3.906 59.373,3.865 59.875 C 3.824 60.365,3.743 60.500,3.490 60.500 C 3.218 60.500,3.167 60.619,3.167 61.250 C 3.167 61.889,3.117 62.000,2.833 62.000 C 2.556 62.000,2.500 62.111,2.500 62.667 C 2.500 63.222,2.444 63.333,2.167 63.333 C 1.883 63.333,1.833 63.444,1.833 64.083 C 1.833 64.722,1.784 64.833,1.500 64.833 C 1.204 64.833,1.167 64.944,1.167 65.822 C 1.167 66.720,1.132 66.815,0.792 66.863 C 0.459 66.911,0.411 67.026,0.367 67.875 C 0.339 68.402,0.245 68.833,0.158 68.833 C 0.064 68.833,0.000 70.111,0.000 72.000 C 0.000 73.889,0.064 75.167,0.158 75.167 C 0.245 75.167,0.339 75.598,0.367 76.125 C 0.409 76.933,0.475 77.109,0.792 77.248 C 1.073 77.371,1.167 77.552,1.167 77.972 C 1.167 78.391,1.250 78.553,1.500 78.618 C 1.684 78.667,1.833 78.846,1.833 79.019 C 1.833 79.222,1.951 79.333,2.167 79.333 C 2.389 79.333,2.500 79.444,2.500 79.667 C 2.500 79.889,2.611 80.000,2.833 80.000 C 3.078 80.000,3.167 80.111,3.167 80.417 C 3.167 80.714,3.257 80.833,3.481 80.833 C 3.654 80.833,3.833 80.982,3.882 81.167 C 3.934 81.366,4.109 81.500,4.318 81.500 C 4.556 81.500,4.667 81.606,4.667 81.833 C 4.667 82.109,4.778 82.167,5.314 82.167 C 5.821 82.167,5.980 82.239,6.048 82.500 C 6.123 82.787,6.276 82.833,7.151 82.833 C 8.056 82.833,8.167 82.870,8.167 83.167 C 8.167 83.488,8.278 83.500,11.250 83.500 C 14.222 83.500,14.333 83.488,14.333 83.167 C 14.333 82.868,14.444 82.833,15.417 82.833 C 16.389 82.833,16.500 82.799,16.500 82.500 C 16.500 82.222,16.611 82.167,17.167 82.167 C 17.722 82.167,17.833 82.111,17.833 81.833 C 17.833 81.611,17.944 81.500,18.167 81.500 C 18.377 81.500,18.500 81.389,18.500 81.199 C 18.500 80.980,18.694 80.854,19.208 80.740 C 19.874 80.593,19.920 80.545,19.968 79.958 C 20.009 79.469,20.090 79.333,20.343 79.333 C 20.556 79.333,20.667 79.219,20.667 79.000 C 20.667 78.778,20.778 78.667,21.000 78.667 C 21.278 78.667,21.333 78.556,21.333 78.000 C 21.333 77.444,21.389 77.333,21.667 77.333 C 21.951 77.333,22.000 77.222,22.000 76.583 C 22.000 75.959,22.053 75.833,22.316 75.833 C 22.704 75.833,22.833 75.521,22.833 74.581 C 22.833 74.002,22.901 73.834,23.167 73.750 C 23.426 73.668,23.500 73.498,23.500 72.989 C 23.500 72.540,23.573 72.333,23.732 72.333 C 23.994 72.333,24.167 71.981,24.167 71.443 C 24.167 71.244,24.317 70.987,24.500 70.872 C 24.730 70.728,24.833 70.483,24.833 70.082 C 24.833 69.611,24.897 69.500,25.167 69.500 C 25.444 69.500,25.500 69.389,25.500 68.833 C 25.500 68.290,25.559 68.167,25.816 68.167 C 26.158 68.167,26.333 67.858,26.333 67.256 C 26.333 67.012,26.455 66.840,26.667 66.785 C 26.858 66.735,27.000 66.558,27.000 66.368 C 27.000 66.179,27.142 66.002,27.333 65.952 C 27.589 65.885,27.667 65.724,27.667 65.266 C 27.667 64.778,27.729 64.667,28.000 64.667 C 28.215 64.667,28.333 64.556,28.333 64.353 C 28.333 64.179,28.482 64.000,28.667 63.952 C 28.932 63.882,29.000 63.724,29.000 63.182 C 29.000 62.566,29.040 62.500,29.417 62.500 C 29.722 62.500,29.833 62.411,29.833 62.167 C 29.833 61.944,29.944 61.833,30.167 61.833 C 30.389 61.833,30.500 61.722,30.500 61.500 C 30.500 61.278,30.611 61.167,30.833 61.167 C 31.052 61.167,31.167 61.056,31.167 60.845 C 31.167 60.667,31.309 60.477,31.482 60.422 C 31.655 60.367,31.836 60.175,31.883 59.994 C 31.930 59.814,32.088 59.667,32.234 59.667 C 32.389 59.667,32.500 59.527,32.500 59.333 C 32.500 59.112,32.611 59.000,32.831 59.000 C 33.089 59.000,33.186 58.852,33.269 58.333 C 33.370 57.704,33.409 57.667,33.954 57.667 C 34.388 57.667,34.552 57.585,34.617 57.339 C 34.664 57.159,34.836 56.969,35.000 56.917 C 35.164 56.865,35.336 56.675,35.383 56.494 C 35.430 56.314,35.588 56.167,35.734 56.167 C 35.880 56.167,36.000 56.063,36.000 55.936 C 36.000 55.809,36.156 55.665,36.346 55.615 C 36.536 55.565,36.732 55.369,36.782 55.179 C 36.833 54.984,37.009 54.833,37.186 54.833 C 37.389 54.833,37.500 54.715,37.500 54.500 C 37.500 54.278,37.611 54.167,37.833 54.167 C 38.056 54.167,38.167 54.056,38.167 53.833 C 38.167 53.556,38.278 53.500,38.833 53.500 C 39.389 53.500,39.500 53.444,39.500 53.167 C 39.500 52.939,39.611 52.833,39.849 52.833 C 40.058 52.833,40.233 52.699,40.285 52.500 C 40.340 52.288,40.512 52.167,40.756 52.167 C 41.358 52.167,41.667 51.991,41.667 51.649 C 41.667 51.444,41.784 51.333,42.000 51.333 C 42.222 51.333,42.333 51.222,42.333 51.000 C 42.333 50.721,42.444 50.667,43.016 50.667 C 43.558 50.667,43.716 50.598,43.785 50.333 C 43.853 50.072,44.012 50.000,44.519 50.000 C 45.056 50.000,45.167 49.943,45.167 49.667 C 45.167 49.388,45.278 49.333,45.849 49.333 C 46.385 49.333,46.549 49.264,46.616 49.009 C 46.677 48.776,46.872 48.670,47.309 48.634 C 47.793 48.594,47.927 48.507,47.970 48.208 C 48.018 47.867,48.113 47.833,49.027 47.833 C 49.891 47.833,50.043 47.787,50.118 47.500 C 50.192 47.218,50.346 47.167,51.118 47.167 C 51.891 47.167,52.045 47.115,52.118 46.833 C 52.193 46.547,52.346 46.500,53.202 46.500 C 54.058 46.500,54.210 46.453,54.285 46.167 C 54.363 45.868,54.512 45.833,55.702 45.833 C 56.885 45.833,57.041 45.797,57.117 45.504 C 57.197 45.200,57.375 45.172,59.560 45.129 C 61.861 45.084,61.918 45.074,61.970 44.708 L 62.023 44.333 65.472 44.333 C 68.889 44.333,68.922 44.337,69.085 44.708 C 69.244 45.069,69.343 45.085,71.625 45.130 C 73.498 45.166,74.000 45.224,74.000 45.403 C 74.000 45.750,74.391 45.833,76.014 45.833 C 77.389 45.833,77.500 45.858,77.500 46.167 C 77.500 46.462,77.611 46.500,78.481 46.500 C 79.321 46.500,79.474 46.548,79.548 46.833 C 79.623 47.121,79.776 47.167,80.651 47.167 C 81.556 47.167,81.667 47.203,81.667 47.500 C 81.667 47.779,81.778 47.833,82.349 47.833 C 82.880 47.833,83.050 47.904,83.114 48.151 C 83.208 48.510,83.628 48.661,84.542 48.664 C 85.055 48.666,85.167 48.726,85.167 49.000 C 85.167 49.276,85.278 49.333,85.814 49.333 C 86.321 49.333,86.480 49.406,86.548 49.667 C 86.618 49.932,86.776 50.000,87.318 50.000 C 87.889 50.000,88.000 50.054,88.000 50.333 C 88.000 50.549,88.111 50.667,88.314 50.667 C 88.488 50.667,88.667 50.816,88.715 51.000 C 88.781 51.254,88.942 51.333,89.389 51.333 C 89.872 51.333,89.986 51.400,90.030 51.708 C 90.064 51.949,90.217 52.102,90.458 52.137 C 90.665 52.166,90.833 52.291,90.833 52.414 C 90.833 52.545,91.109 52.684,91.500 52.750 C 92.006 52.835,92.167 52.939,92.167 53.181 C 92.167 53.382,92.283 53.500,92.481 53.500 C 92.654 53.500,92.833 53.649,92.882 53.833 C 92.951 54.098,93.109 54.167,93.651 54.167 C 94.222 54.167,94.333 54.221,94.333 54.500 C 94.333 54.722,94.444 54.833,94.667 54.833 C 94.911 54.833,95.000 54.944,95.000 55.250 C 95.000 55.556,95.089 55.667,95.333 55.667 C 95.527 55.667,95.667 55.778,95.667 55.932 C 95.667 56.078,95.817 56.237,96.000 56.285 C 96.183 56.333,96.333 56.483,96.333 56.618 C 96.333 56.754,96.476 56.902,96.651 56.948 C 96.826 56.993,97.007 57.174,97.052 57.349 C 97.101 57.534,97.281 57.667,97.484 57.667 C 97.722 57.667,97.833 57.773,97.833 58.000 C 97.833 58.222,97.944 58.333,98.167 58.333 C 98.389 58.333,98.500 58.444,98.500 58.667 C 98.500 58.889,98.611 59.000,98.833 59.000 C 99.061 59.000,99.167 59.111,99.167 59.349 C 99.167 59.558,99.301 59.733,99.500 59.785 C 99.683 59.833,99.833 59.983,99.833 60.118 C 99.833 60.254,99.983 60.404,100.167 60.452 C 100.351 60.500,100.500 60.679,100.500 60.853 C 100.500 61.076,100.620 61.167,100.917 61.167 C 101.222 61.167,101.333 61.256,101.333 61.500 C 101.333 61.722,101.444 61.833,101.667 61.833 C 101.938 61.833,102.000 61.944,102.000 62.432 C 102.000 62.891,102.078 63.052,102.333 63.118 C 102.549 63.175,102.667 63.346,102.667 63.603 C 102.667 63.889,102.760 64.000,103.000 64.000 C 103.222 64.000,103.333 64.111,103.333 64.333 C 103.333 64.552,103.444 64.667,103.657 64.667 C 103.910 64.667,103.991 64.802,104.032 65.292 C 104.073 65.794,104.157 65.927,104.458 65.970 C 104.776 66.015,104.833 66.125,104.833 66.694 C 104.833 67.224,104.903 67.383,105.167 67.452 C 105.351 67.500,105.500 67.679,105.500 67.853 C 105.500 68.056,105.618 68.167,105.833 68.167 C 106.111 68.167,106.167 68.278,106.167 68.833 L 106.167 69.500 106.833 69.500 L 107.500 69.500 107.500 67.901 C 107.500 66.442,107.471 66.294,107.167 66.215 C 106.904 66.146,106.833 65.988,106.833 65.465 C 106.833 64.942,106.763 64.784,106.500 64.715 C 106.239 64.647,106.167 64.488,106.167 63.981 C 106.167 63.444,106.109 63.333,105.833 63.333 C 105.560 63.333,105.500 63.221,105.498 62.708 C 105.494 61.795,105.344 61.375,104.985 61.281 C 104.800 61.233,104.667 61.052,104.667 60.849 C 104.667 60.611,104.561 60.500,104.333 60.500 C 104.056 60.500,104.000 60.389,104.000 59.833 C 104.000 59.278,103.944 59.167,103.667 59.167 C 103.388 59.167,103.333 59.056,103.333 58.484 C 103.333 57.954,103.263 57.784,103.016 57.719 C 102.812 57.666,102.659 57.429,102.590 57.059 C 102.530 56.742,102.373 56.441,102.241 56.390 C 102.108 56.339,102.000 56.156,102.000 55.982 C 102.000 55.757,101.881 55.667,101.583 55.667 C 101.207 55.667,101.167 55.601,101.167 54.984 C 101.167 54.442,101.098 54.284,100.833 54.215 C 100.649 54.167,100.500 53.988,100.500 53.814 C 100.500 53.611,100.382 53.500,100.167 53.500 C 99.925 53.500,99.833 53.389,99.833 53.097 C 99.833 52.522,99.668 52.167,99.399 52.167 C 99.271 52.167,99.167 52.047,99.167 51.901 C 99.167 51.755,99.021 51.597,98.843 51.551 C 98.665 51.504,98.496 51.305,98.468 51.108 C 98.436 50.884,98.276 50.730,98.042 50.697 C 97.801 50.663,97.667 50.529,97.667 50.322 C 97.667 50.111,97.552 50.000,97.333 50.000 C 97.111 50.000,97.000 49.889,97.000 49.667 C 97.000 49.444,96.889 49.333,96.667 49.333 C 96.396 49.333,96.333 49.222,96.333 48.746 C 96.333 48.273,96.252 48.128,95.917 48.000 C 95.688 47.913,95.500 47.727,95.500 47.587 C 95.500 47.448,95.386 47.333,95.246 47.333 C 95.106 47.333,94.920 47.146,94.833 46.917 C 94.746 46.688,94.561 46.500,94.421 46.500 C 94.281 46.500,94.167 46.393,94.167 46.261 C 94.167 46.130,94.025 45.977,93.851 45.922 C 93.678 45.867,93.497 45.675,93.450 45.494 C 93.403 45.314,93.254 45.167,93.118 45.167 C 92.983 45.167,92.833 45.017,92.785 44.833 C 92.719 44.580,92.558 44.500,92.111 44.500 C 91.628 44.500,91.514 44.433,91.470 44.125 C 91.436 43.884,91.283 43.731,91.042 43.697 C 90.801 43.663,90.667 43.529,90.667 43.322 C 90.667 43.111,90.552 43.000,90.333 43.000 C 90.111 43.000,90.000 42.889,90.000 42.667 C 90.000 42.444,89.889 42.333,89.667 42.333 C 89.444 42.333,89.333 42.222,89.333 42.000 C 89.333 41.756,89.222 41.667,88.917 41.667 C 88.611 41.667,88.500 41.578,88.500 41.333 C 88.500 41.056,88.389 41.000,87.833 41.000 C 87.233 41.000,87.167 40.958,87.167 40.583 C 87.167 40.278,87.078 40.167,86.833 40.167 C 86.650 40.167,86.500 40.062,86.500 39.934 C 86.500 39.669,86.146 39.500,85.589 39.500 C 85.346 39.500,85.174 39.378,85.118 39.167 C 85.066 38.967,84.891 38.833,84.682 38.833 C 84.444 38.833,84.333 38.727,84.333 38.500 C 84.333 38.222,84.222 38.167,83.667 38.167 C 83.111 38.167,83.000 38.111,83.000 37.833 C 83.000 37.556,82.889 37.500,82.333 37.500 C 81.778 37.500,81.667 37.444,81.667 37.167 C 81.667 36.922,81.556 36.833,81.250 36.833 C 80.945 36.833,80.833 36.744,80.833 36.502 C 80.833 36.244,80.685 36.147,80.167 36.064 C 79.796 36.005,79.500 35.864,79.500 35.747 C 79.500 35.453,79.110 35.333,78.153 35.333 C 77.444 35.333,77.333 35.288,77.333 35.000 C 77.333 34.722,77.222 34.667,76.667 34.667 C 76.111 34.667,76.000 34.611,76.000 34.333 C 76.000 34.054,75.889 34.000,75.318 34.000 C 74.776 34.000,74.618 33.932,74.548 33.667 C 74.474 33.381,74.321 33.333,73.481 33.333 C 72.713 33.333,72.500 33.278,72.500 33.079 C 72.500 32.718,71.805 32.500,70.656 32.500 C 69.778 32.500,69.667 32.463,69.667 32.167 C 69.667 31.868,69.556 31.833,68.603 31.833 C 67.679 31.833,67.527 31.789,67.452 31.500 C 67.371 31.190,67.224 31.167,65.349 31.167 C 63.444 31.167,63.333 31.148,63.333 30.833 C 63.333 30.510,63.222 30.500,59.500 30.500 C 55.778 30.500,55.667 30.490,55.667 30.167 C 55.667 29.855,55.556 29.833,53.984 29.833 C 52.442 29.833,52.295 29.861,52.215 30.167 " stroke="none" fill="#7aa5fc" fill-rule="evenodd"></path><path id="path2" d="M335.914 45.500 C 335.914 54.987,335.934 58.869,335.958 54.125 C 335.983 49.381,335.983 41.619,335.958 36.875 C 335.934 32.131,335.914 36.012,335.914 45.500 M399.667 37.083 C 399.667 37.313,399.742 37.500,399.833 37.500 C 399.925 37.500,400.000 37.313,400.000 37.083 C 400.000 36.854,399.925 36.667,399.833 36.667 C 399.742 36.667,399.667 36.854,399.667 37.083 M194.406 42.333 C 194.406 44.671,194.429 45.627,194.458 44.458 C 194.487 43.290,194.487 41.377,194.458 40.208 C 194.429 39.040,194.406 39.996,194.406 42.333 M399.667 49.000 C 399.667 49.183,399.742 49.333,399.833 49.333 C 399.925 49.333,400.000 49.183,400.000 49.000 C 400.000 48.817,399.925 48.667,399.833 48.667 C 399.742 48.667,399.667 48.817,399.667 49.000 M128.536 51.987 C 128.507 53.658,128.445 54.124,128.215 54.404 L 127.929 54.750 128.303 54.407 C 128.659 54.080,128.675 53.960,128.625 51.990 L 128.572 49.917 128.536 51.987 " stroke="none" fill="#4c4c4c" fill-rule="evenodd"></path><path id="path3" d="M137.000 21.666 C 137.000 21.980,136.890 22.000,135.180 22.000 C 133.144 22.000,132.833 22.067,132.833 22.510 C 132.833 22.771,132.675 22.825,131.792 22.867 L 130.750 22.917 130.706 27.708 L 130.662 32.500 133.507 32.500 C 135.735 32.500,136.327 32.455,136.235 32.292 C 136.141 32.125,136.163 32.125,136.342 32.292 C 136.512 32.450,137.889 32.500,142.022 32.500 C 147.331 32.500,147.480 32.509,147.583 32.833 C 147.662 33.080,147.836 33.167,148.251 33.167 C 148.780 33.167,148.816 33.203,148.865 33.792 C 148.903 34.251,149.016 34.460,149.292 34.581 C 149.651 34.739,149.667 34.830,149.667 36.790 L 149.667 38.833 143.835 38.833 C 138.183 38.833,137.996 38.844,137.795 39.167 C 137.626 39.437,137.406 39.500,136.627 39.500 C 135.778 39.500,135.667 39.539,135.667 39.833 C 135.667 40.110,135.556 40.167,135.011 40.167 C 134.167 40.167,133.500 40.423,133.500 40.746 C 133.500 40.931,133.320 41.000,132.833 41.000 C 132.278 41.000,132.167 41.056,132.167 41.333 C 132.167 41.561,132.056 41.667,131.818 41.667 C 131.615 41.667,131.434 41.800,131.386 41.985 C 131.340 42.159,131.159 42.340,130.985 42.386 C 130.810 42.431,130.667 42.580,130.667 42.715 C 130.667 42.850,130.517 43.000,130.333 43.048 C 130.142 43.098,130.000 43.276,130.000 43.465 C 130.000 43.654,129.858 43.832,129.667 43.882 C 129.414 43.948,129.333 44.109,129.333 44.548 C 129.333 44.988,129.253 45.149,129.000 45.215 C 128.716 45.289,128.667 45.442,128.667 46.250 C 128.667 47.054,128.617 47.211,128.337 47.284 C 127.639 47.467,127.596 55.943,128.292 56.248 C 128.667 56.412,128.746 56.752,128.672 57.875 C 128.648 58.237,128.714 58.333,128.987 58.333 C 129.286 58.333,129.333 58.435,129.333 59.083 C 129.333 59.722,129.383 59.833,129.667 59.833 C 129.944 59.833,130.000 59.944,130.000 60.500 C 130.000 61.056,130.056 61.167,130.333 61.167 C 130.556 61.167,130.667 61.278,130.667 61.500 C 130.667 61.715,130.778 61.833,130.981 61.833 C 131.154 61.833,131.333 61.982,131.382 62.167 C 131.433 62.361,131.609 62.500,131.806 62.500 C 132.029 62.500,132.162 62.627,132.197 62.875 C 132.240 63.176,132.373 63.260,132.875 63.302 C 133.376 63.343,133.500 63.421,133.500 63.694 C 133.500 63.992,133.587 64.026,134.217 63.975 C 134.845 63.924,134.933 63.958,134.926 64.250 C 134.917 64.553,135.040 64.588,136.292 64.632 C 137.530 64.675,137.667 64.713,137.667 65.007 C 137.667 65.321,137.802 65.333,141.167 65.333 C 144.556 65.333,144.667 65.323,144.667 65.000 C 144.667 64.693,144.778 64.667,146.083 64.667 C 147.389 64.667,147.500 64.641,147.500 64.333 C 147.500 64.056,147.611 64.000,148.167 64.000 C 148.710 64.000,148.833 63.942,148.833 63.683 C 148.833 63.428,148.979 63.355,149.583 63.307 C 150.224 63.256,150.333 63.293,150.333 63.556 C 150.333 63.726,150.476 63.902,150.651 63.948 C 150.826 63.993,151.007 64.174,151.052 64.349 C 151.186 64.859,162.167 64.844,162.167 64.333 C 162.167 64.111,162.278 64.000,162.500 64.000 C 163.026 64.000,163.026 32.084,162.500 31.917 C 162.216 31.827,162.167 31.664,162.167 30.822 C 162.167 29.944,162.129 29.833,161.833 29.833 C 161.545 29.833,161.500 29.722,161.500 29.014 C 161.500 28.055,161.380 27.667,161.085 27.667 C 160.968 27.667,160.833 27.517,160.785 27.333 C 160.733 27.134,160.558 27.000,160.349 27.000 C 160.111 27.000,160.000 26.894,160.000 26.667 C 160.000 26.444,159.889 26.333,159.667 26.333 C 159.390 26.333,159.333 26.222,159.333 25.684 C 159.333 24.998,159.153 24.833,158.403 24.833 C 158.111 24.833,158.000 24.741,158.000 24.500 C 158.000 24.285,157.889 24.167,157.686 24.167 C 157.512 24.167,157.333 24.018,157.285 23.833 C 157.216 23.568,157.058 23.500,156.516 23.500 C 155.944 23.500,155.833 23.446,155.833 23.167 C 155.833 22.889,155.722 22.833,155.167 22.833 C 154.624 22.833,154.500 22.775,154.500 22.518 C 154.500 22.124,154.187 22.000,153.193 22.000 C 152.597 22.000,152.365 21.922,152.208 21.671 C 151.883 21.150,137.000 21.145,137.000 21.666 M184.000 21.663 C 184.000 21.918,183.859 21.991,183.292 22.032 C 182.703 22.075,182.574 22.147,182.530 22.458 C 182.485 22.775,182.374 22.833,181.822 22.833 C 181.278 22.833,181.167 22.890,181.167 23.167 C 181.167 23.451,181.056 23.500,180.417 23.500 C 179.778 23.500,179.667 23.549,179.667 23.833 C 179.667 24.111,179.556 24.167,179.000 24.167 C 178.444 24.167,178.333 24.222,178.333 24.500 C 178.333 24.771,178.222 24.833,177.734 24.833 C 177.281 24.833,177.115 24.912,177.051 25.157 C 177.004 25.335,176.805 25.504,176.608 25.532 C 176.384 25.564,176.230 25.724,176.197 25.958 C 176.152 26.275,176.041 26.333,175.488 26.333 C 174.918 26.333,174.833 26.382,174.833 26.713 C 174.833 27.055,174.768 27.086,174.167 27.029 C 173.580 26.973,173.500 27.007,173.500 27.316 C 173.500 27.637,173.407 27.667,172.417 27.667 C 171.444 27.667,171.333 27.701,171.333 28.000 C 171.333 28.278,171.222 28.333,170.667 28.333 L 170.000 28.333 170.000 53.167 C 170.000 77.889,170.001 78.000,170.333 78.000 C 170.556 78.000,170.667 78.111,170.667 78.333 C 170.667 78.657,170.778 78.667,174.349 78.667 C 177.891 78.667,178.035 78.654,178.118 78.333 C 178.179 78.100,178.346 78.000,178.672 78.000 C 179.308 78.000,179.667 77.843,179.667 77.566 C 179.667 77.438,179.817 77.333,180.000 77.333 C 180.244 77.333,180.333 77.222,180.333 76.917 C 180.333 76.583,180.417 76.500,180.750 76.500 C 181.056 76.500,181.167 76.411,181.167 76.167 C 181.167 75.978,181.278 75.833,181.422 75.833 C 181.562 75.833,181.726 75.702,181.786 75.542 C 181.846 75.381,182.031 75.152,182.197 75.032 C 182.478 74.830,182.500 74.452,182.500 69.741 L 182.500 64.667 183.905 64.667 C 185.164 64.667,185.322 64.701,185.417 65.000 C 185.581 65.519,190.833 65.519,190.833 65.000 C 190.833 64.685,190.944 64.667,192.905 64.667 C 194.831 64.667,194.985 64.643,195.083 64.333 C 195.172 64.053,195.336 64.000,196.110 64.000 C 196.883 64.000,197.045 63.948,197.116 63.675 C 197.180 63.431,197.372 63.338,197.892 63.300 C 198.463 63.259,198.593 63.185,198.637 62.875 C 198.682 62.559,198.792 62.500,199.345 62.500 C 199.889 62.500,200.000 62.443,200.000 62.167 C 200.000 61.944,200.111 61.833,200.333 61.833 C 200.556 61.833,200.667 61.722,200.667 61.500 C 200.667 61.278,200.778 61.167,201.000 61.167 C 201.222 61.167,201.333 61.056,201.333 60.833 C 201.333 60.589,201.444 60.500,201.750 60.500 C 202.056 60.500,202.167 60.411,202.167 60.167 C 202.167 59.944,202.278 59.833,202.500 59.833 C 202.744 59.833,202.833 59.722,202.833 59.417 C 202.833 59.111,202.922 59.000,203.167 59.000 C 203.389 59.000,203.500 58.889,203.500 58.667 C 203.500 58.444,203.611 58.333,203.833 58.333 C 204.111 58.333,204.167 58.222,204.167 57.667 C 204.167 57.111,204.222 57.000,204.500 57.000 C 204.774 57.000,204.833 56.889,204.833 56.373 C 204.833 55.882,204.915 55.710,205.208 55.581 C 205.523 55.443,205.591 55.266,205.633 54.476 C 205.673 53.706,205.742 53.519,206.008 53.450 C 206.304 53.372,206.333 53.211,206.333 51.682 C 206.333 50.111,206.355 50.000,206.667 50.000 C 206.994 50.000,207.000 49.889,207.000 43.417 C 207.000 36.944,206.994 36.833,206.667 36.833 C 206.359 36.833,206.333 36.722,206.333 35.417 C 206.333 34.111,206.307 34.000,206.000 34.000 C 205.712 34.000,205.667 33.889,205.667 33.180 C 205.667 32.146,205.546 31.833,205.149 31.833 C 204.892 31.833,204.833 31.710,204.833 31.167 C 204.833 30.611,204.778 30.500,204.500 30.500 C 204.278 30.500,204.167 30.389,204.167 30.167 C 204.167 29.944,204.056 29.833,203.833 29.833 C 203.554 29.833,203.500 29.722,203.500 29.151 C 203.500 28.609,203.432 28.451,203.167 28.382 C 202.982 28.333,202.833 28.154,202.833 27.981 C 202.833 27.778,202.715 27.667,202.500 27.667 C 202.278 27.667,202.167 27.556,202.167 27.333 C 202.167 27.089,202.056 27.000,201.750 27.000 C 201.444 27.000,201.333 26.911,201.333 26.667 C 201.333 26.444,201.222 26.333,201.000 26.333 C 200.756 26.333,200.667 26.222,200.667 25.917 C 200.667 25.611,200.578 25.500,200.333 25.500 C 200.111 25.500,200.000 25.389,200.000 25.167 C 200.000 24.951,199.889 24.833,199.686 24.833 C 199.512 24.833,199.333 24.684,199.285 24.500 C 199.216 24.235,199.058 24.167,198.516 24.167 C 197.944 24.167,197.833 24.112,197.833 23.833 C 197.833 23.618,197.722 23.500,197.519 23.500 C 197.342 23.500,197.166 23.350,197.115 23.153 C 197.043 22.880,196.905 22.812,196.470 22.836 C 195.371 22.897,195.192 22.847,195.137 22.458 C 195.093 22.153,194.961 22.073,194.424 22.030 C 194.006 21.995,193.682 21.858,193.539 21.654 C 193.190 21.156,184.000 21.166,184.000 21.663 M227.333 21.659 C 227.333 21.937,227.196 21.991,226.375 22.033 C 225.526 22.078,225.411 22.126,225.363 22.458 C 225.317 22.783,225.211 22.833,224.572 22.833 C 223.944 22.833,223.833 22.883,223.833 23.167 C 223.833 23.438,223.722 23.500,223.234 23.500 C 222.776 23.500,222.615 23.578,222.548 23.833 C 222.500 24.018,222.321 24.167,222.147 24.167 C 221.944 24.167,221.833 24.285,221.833 24.500 C 221.833 24.779,221.722 24.833,221.151 24.833 C 220.620 24.833,220.450 24.904,220.386 25.151 C 220.332 25.356,220.095 25.508,219.716 25.579 C 219.334 25.650,219.100 25.801,219.045 26.011 C 218.999 26.188,218.820 26.333,218.647 26.333 C 218.444 26.333,218.333 26.451,218.333 26.667 C 218.333 26.951,218.222 27.000,217.583 27.000 C 216.944 27.000,216.833 27.049,216.833 27.333 C 216.833 27.630,216.722 27.667,215.833 27.667 C 214.944 27.667,214.833 27.704,214.833 28.000 C 214.833 28.284,214.722 28.333,214.083 28.333 C 213.453 28.333,213.333 28.385,213.333 28.655 C 213.333 28.833,213.183 29.025,213.000 29.083 C 212.669 29.188,212.667 29.336,212.667 53.194 C 212.667 77.058,212.669 77.198,213.000 77.285 C 213.229 77.345,213.333 77.512,213.333 77.819 C 213.333 78.638,213.470 78.667,217.367 78.667 C 220.889 78.667,221.000 78.656,221.000 78.333 C 221.000 78.060,221.112 78.000,221.625 77.998 C 222.484 77.995,223.000 77.836,223.000 77.575 C 223.000 77.455,223.169 77.333,223.375 77.303 C 223.616 77.269,223.769 77.116,223.803 76.875 C 223.837 76.634,223.971 76.500,224.178 76.500 C 224.389 76.500,224.500 76.385,224.500 76.167 C 224.500 75.944,224.611 75.833,224.833 75.833 C 225.111 75.833,225.167 75.722,225.167 75.167 C 225.167 74.624,225.225 74.500,225.482 74.500 C 225.976 74.500,226.000 74.258,226.000 69.320 L 226.000 64.667 227.417 64.667 C 228.722 64.667,228.833 64.693,228.833 65.000 C 228.833 65.318,228.944 65.333,231.182 65.333 C 233.391 65.333,233.536 65.313,233.618 65.000 C 233.700 64.687,233.846 64.667,236.035 64.667 C 238.224 64.667,238.370 64.647,238.452 64.333 C 238.525 64.052,238.679 64.000,239.435 64.000 C 240.150 64.000,240.372 63.933,240.539 63.667 C 240.653 63.483,240.910 63.333,241.110 63.333 C 241.692 63.333,242.000 63.154,242.000 62.816 C 242.000 62.611,242.117 62.500,242.333 62.500 C 242.556 62.500,242.667 62.389,242.667 62.167 C 242.667 61.883,242.778 61.833,243.417 61.833 C 244.056 61.833,244.167 61.784,244.167 61.500 C 244.167 61.278,244.278 61.167,244.500 61.167 C 244.722 61.167,244.833 61.056,244.833 60.833 C 244.833 60.611,244.944 60.500,245.167 60.500 C 245.389 60.500,245.500 60.389,245.500 60.167 C 245.500 59.944,245.611 59.833,245.833 59.833 C 246.075 59.833,246.167 59.722,246.167 59.428 C 246.167 59.135,246.270 59.008,246.542 58.970 C 246.843 58.927,246.927 58.794,246.968 58.292 C 247.009 57.802,247.090 57.667,247.343 57.667 C 247.541 57.667,247.667 57.553,247.667 57.373 C 247.667 57.212,247.817 56.987,248.000 56.872 C 248.268 56.705,248.333 56.483,248.333 55.749 C 248.333 54.944,248.374 54.833,248.667 54.833 C 248.962 54.833,249.000 54.722,249.000 53.853 C 249.000 53.012,249.048 52.860,249.333 52.785 C 249.647 52.703,249.667 52.558,249.667 50.266 C 249.667 47.970,249.685 47.833,249.990 47.833 C 250.692 47.833,250.743 38.963,250.042 38.863 C 249.676 38.811,249.667 38.760,249.667 36.738 C 249.667 34.778,249.649 34.667,249.333 34.667 C 249.036 34.667,249.000 34.556,249.000 33.651 C 249.000 32.776,248.954 32.623,248.667 32.548 C 248.406 32.480,248.333 32.321,248.333 31.814 C 248.333 31.278,248.276 31.167,248.000 31.167 C 247.722 31.167,247.667 31.056,247.667 30.500 C 247.667 29.952,247.609 29.833,247.345 29.833 C 247.138 29.833,247.004 29.699,246.970 29.458 C 246.936 29.217,246.783 29.064,246.542 29.030 C 246.225 28.985,246.167 28.874,246.167 28.322 C 246.167 27.778,246.110 27.667,245.833 27.667 C 245.611 27.667,245.500 27.556,245.500 27.333 C 245.500 27.111,245.389 27.000,245.167 27.000 C 244.944 27.000,244.833 26.889,244.833 26.667 C 244.833 26.444,244.722 26.333,244.500 26.333 C 244.282 26.333,244.167 26.222,244.167 26.011 C 244.167 25.834,244.025 25.644,243.851 25.589 C 243.678 25.534,243.497 25.341,243.450 25.161 C 243.401 24.975,243.223 24.833,243.035 24.833 C 242.846 24.833,242.668 24.692,242.618 24.500 C 242.552 24.245,242.391 24.167,241.932 24.167 C 241.444 24.167,241.333 24.105,241.333 23.833 C 241.333 23.556,241.222 23.500,240.667 23.500 C 240.111 23.500,240.000 23.444,240.000 23.167 C 240.000 22.883,239.889 22.833,239.262 22.833 C 238.623 22.833,238.516 22.783,238.470 22.458 C 238.423 22.127,238.307 22.078,237.467 22.034 C 236.702 21.994,236.498 21.921,236.416 21.664 C 236.256 21.161,227.333 21.156,227.333 21.659 M263.833 21.667 C 263.833 21.963,263.722 22.000,262.844 22.000 C 261.695 22.000,261.000 22.218,261.000 22.579 C 261.000 22.765,260.820 22.833,260.333 22.833 C 259.778 22.833,259.667 22.889,259.667 23.167 C 259.667 23.411,259.556 23.500,259.250 23.500 C 258.944 23.500,258.833 23.589,258.833 23.833 C 258.833 24.056,258.722 24.167,258.500 24.167 C 258.278 24.167,258.167 24.278,258.167 24.500 C 258.167 24.722,258.056 24.833,257.833 24.833 C 257.611 24.833,257.500 24.944,257.500 25.167 C 257.500 25.389,257.389 25.500,257.167 25.500 C 256.922 25.500,256.833 25.611,256.833 25.917 C 256.833 26.222,256.744 26.333,256.500 26.333 C 256.223 26.333,256.167 26.444,256.167 26.988 C 256.167 27.541,256.108 27.652,255.792 27.697 C 255.455 27.745,255.412 27.856,255.367 28.792 C 255.324 29.697,255.275 29.833,254.992 29.833 C 254.485 29.833,254.486 35.817,254.993 35.950 C 255.264 36.021,255.327 36.206,255.368 37.059 C 255.412 37.977,255.456 38.089,255.792 38.137 C 256.108 38.182,256.167 38.292,256.167 38.845 C 256.167 39.389,256.223 39.500,256.500 39.500 C 256.778 39.500,256.833 39.611,256.833 40.167 C 256.833 40.722,256.889 40.833,257.167 40.833 C 257.394 40.833,257.500 40.944,257.500 41.182 C 257.500 41.391,257.634 41.566,257.833 41.618 C 258.018 41.667,258.167 41.846,258.167 42.019 C 258.167 42.216,258.284 42.333,258.481 42.333 C 258.654 42.333,258.833 42.482,258.882 42.667 C 258.934 42.866,259.109 43.000,259.318 43.000 C 259.556 43.000,259.667 43.106,259.667 43.333 C 259.667 43.611,259.778 43.667,260.333 43.667 C 260.889 43.667,261.000 43.722,261.000 44.000 C 261.000 44.215,261.111 44.333,261.314 44.333 C 261.487 44.333,261.666 44.481,261.714 44.662 C 261.775 44.895,261.998 45.022,262.483 45.100 C 263.001 45.183,263.167 45.285,263.167 45.521 C 263.167 45.774,263.293 45.833,263.833 45.833 C 264.389 45.833,264.500 45.889,264.500 46.167 C 264.500 46.444,264.611 46.500,265.167 46.500 C 265.722 46.500,265.833 46.556,265.833 46.833 C 265.833 47.078,265.944 47.167,266.250 47.167 C 266.556 47.167,266.667 47.256,266.667 47.500 C 266.667 47.778,266.778 47.833,267.333 47.833 C 267.876 47.833,268.000 47.892,268.000 48.149 C 268.000 48.491,268.308 48.667,268.911 48.667 C 269.154 48.667,269.326 48.788,269.382 49.000 C 269.451 49.265,269.609 49.333,270.151 49.333 C 270.722 49.333,270.833 49.388,270.833 49.667 C 270.833 49.882,270.944 50.000,271.147 50.000 C 271.321 50.000,271.500 50.149,271.548 50.333 C 271.596 50.517,271.746 50.667,271.882 50.667 C 272.017 50.667,272.167 50.817,272.215 51.000 C 272.263 51.183,272.413 51.333,272.548 51.333 C 272.684 51.333,272.835 51.489,272.885 51.679 C 272.935 51.869,273.131 52.065,273.321 52.115 C 273.787 52.237,273.785 52.833,273.318 52.833 C 273.109 52.833,272.934 52.967,272.882 53.167 C 272.833 53.351,272.654 53.500,272.481 53.500 C 272.278 53.500,272.167 53.618,272.167 53.833 C 272.167 54.158,272.056 54.167,267.917 54.167 C 263.766 54.167,263.667 54.159,263.667 53.830 C 263.667 53.501,263.582 53.495,259.542 53.539 L 255.417 53.583 255.372 58.230 C 255.324 63.305,255.329 63.333,256.270 63.333 C 256.640 63.333,256.833 63.413,256.833 63.566 C 256.833 63.917,257.219 64.000,258.847 64.000 C 260.222 64.000,260.333 64.025,260.333 64.333 C 260.333 64.656,260.444 64.667,263.833 64.667 C 267.222 64.667,267.333 64.677,267.333 65.000 C 267.333 65.320,267.444 65.333,270.083 65.333 C 272.722 65.333,272.833 65.320,272.833 65.000 C 272.833 64.684,272.944 64.667,274.917 64.667 C 276.889 64.667,277.000 64.649,277.000 64.333 C 277.000 64.034,277.111 64.000,278.083 64.000 C 279.056 64.000,279.167 63.966,279.167 63.667 C 279.167 63.389,279.278 63.333,279.833 63.333 C 280.433 63.333,280.500 63.292,280.500 62.917 C 280.500 62.534,280.561 62.500,281.250 62.500 C 281.889 62.500,282.000 62.451,282.000 62.167 C 282.000 61.944,282.111 61.833,282.333 61.833 C 282.556 61.833,282.667 61.722,282.667 61.500 C 282.667 61.278,282.778 61.167,283.000 61.167 C 283.222 61.167,283.333 61.056,283.333 60.833 C 283.333 60.611,283.444 60.500,283.667 60.500 C 283.885 60.500,284.000 60.389,284.000 60.178 C 284.000 59.971,284.134 59.837,284.375 59.803 C 284.687 59.759,284.759 59.631,284.801 59.042 C 284.843 58.469,284.915 58.333,285.176 58.333 C 285.443 58.333,285.500 58.216,285.500 57.667 C 285.500 57.111,285.556 57.000,285.833 57.000 C 286.146 57.000,286.167 56.889,286.167 55.250 C 286.167 53.611,286.188 53.500,286.500 53.500 C 286.805 53.500,286.833 53.389,286.833 52.178 C 286.833 51.002,286.796 50.844,286.500 50.750 C 286.196 50.654,286.167 50.498,286.167 49.000 C 286.167 47.502,286.137 47.346,285.833 47.250 C 285.574 47.168,285.500 46.998,285.500 46.489 C 285.500 45.954,285.441 45.833,285.181 45.833 C 284.939 45.833,284.835 45.673,284.750 45.167 C 284.665 44.661,284.561 44.500,284.319 44.500 C 284.111 44.500,284.000 44.384,284.000 44.167 C 284.000 43.951,283.889 43.833,283.686 43.833 C 283.512 43.833,283.333 43.684,283.285 43.500 C 283.237 43.317,283.096 43.167,282.972 43.167 C 282.847 43.167,282.672 42.998,282.581 42.792 C 282.468 42.534,282.247 42.400,281.875 42.364 C 281.468 42.325,281.333 42.232,281.333 41.989 C 281.333 41.756,281.218 41.667,280.917 41.667 C 280.611 41.667,280.500 41.578,280.500 41.333 C 280.500 41.057,280.389 41.000,279.845 41.000 C 279.292 41.000,279.182 40.941,279.137 40.625 C 279.102 40.384,278.949 40.231,278.708 40.197 C 278.502 40.167,278.333 40.037,278.333 39.907 C 278.333 39.760,278.081 39.630,277.667 39.564 C 277.164 39.484,277.000 39.381,277.000 39.145 C 277.000 38.892,276.874 38.833,276.333 38.833 C 275.770 38.833,275.667 38.780,275.667 38.487 C 275.667 38.189,275.581 38.149,275.042 38.196 C 274.501 38.243,274.410 38.199,274.363 37.875 C 274.325 37.604,274.198 37.500,273.905 37.500 C 273.611 37.500,273.500 37.409,273.500 37.167 C 273.500 36.889,273.389 36.833,272.833 36.833 C 272.290 36.833,272.167 36.775,272.167 36.518 C 272.167 36.175,271.858 36.000,271.256 36.000 C 271.012 36.000,270.840 35.878,270.785 35.667 C 270.716 35.402,270.558 35.333,270.016 35.333 C 269.444 35.333,269.333 35.279,269.333 35.000 C 269.333 34.778,269.222 34.667,269.000 34.667 C 268.778 34.667,268.667 34.556,268.667 34.333 C 268.667 34.111,268.556 34.000,268.333 34.000 C 268.089 34.000,268.000 33.889,268.000 33.583 C 268.000 33.333,268.095 33.167,268.239 33.167 C 268.370 33.167,268.525 33.017,268.583 32.833 C 268.666 32.574,268.836 32.500,269.345 32.500 C 269.889 32.500,270.000 32.443,270.000 32.167 C 270.000 31.854,270.111 31.833,271.833 31.833 C 273.556 31.833,273.667 31.854,273.667 32.167 C 273.667 32.490,273.778 32.500,277.500 32.500 C 281.222 32.500,281.333 32.510,281.333 32.833 C 281.333 33.331,284.586 33.349,284.744 32.851 C 284.799 32.678,284.992 32.497,285.172 32.450 C 285.676 32.319,285.685 23.684,285.182 23.552 C 285.007 23.507,284.827 23.326,284.781 23.151 C 284.711 22.882,284.541 22.833,283.682 22.833 C 282.797 22.833,282.667 22.793,282.667 22.518 C 282.667 22.080,282.358 22.000,280.672 22.000 C 279.346 22.000,279.197 21.968,279.118 21.667 C 279.033 21.339,278.891 21.333,271.432 21.333 C 263.944 21.333,263.833 21.338,263.833 21.667 M304.500 21.659 C 304.500 21.941,304.363 21.991,303.458 22.034 C 302.523 22.078,302.411 22.122,302.363 22.458 C 302.315 22.799,302.220 22.833,301.322 22.833 C 300.444 22.833,300.333 22.871,300.333 23.167 C 300.333 23.411,300.222 23.500,299.917 23.500 C 299.611 23.500,299.500 23.589,299.500 23.833 C 299.500 24.111,299.389 24.167,298.833 24.167 C 298.278 24.167,298.167 24.222,298.167 24.500 C 298.167 24.722,298.056 24.833,297.833 24.833 C 297.615 24.833,297.500 24.944,297.500 25.155 C 297.500 25.362,297.366 25.496,297.125 25.530 C 296.884 25.564,296.731 25.717,296.697 25.958 C 296.663 26.199,296.529 26.333,296.322 26.333 C 296.111 26.333,296.000 26.448,296.000 26.667 C 296.000 26.889,295.889 27.000,295.667 27.000 C 295.451 27.000,295.333 27.111,295.333 27.314 C 295.333 27.488,295.184 27.667,295.000 27.715 C 294.746 27.781,294.667 27.942,294.667 28.389 C 294.667 28.872,294.600 28.986,294.292 29.030 C 293.980 29.074,293.908 29.203,293.865 29.792 C 293.824 30.364,293.752 30.500,293.490 30.500 C 293.225 30.500,293.167 30.617,293.167 31.147 C 293.167 31.654,293.094 31.813,292.833 31.882 C 292.547 31.957,292.500 32.109,292.500 32.965 C 292.500 33.821,292.453 33.973,292.167 34.048 C 291.838 34.134,291.833 34.276,291.833 43.333 C 291.833 52.391,291.838 52.533,292.167 52.618 C 292.456 52.694,292.500 52.846,292.500 53.769 C 292.500 54.722,292.535 54.833,292.833 54.833 C 293.112 54.833,293.167 54.944,293.167 55.516 C 293.167 56.058,293.235 56.216,293.500 56.285 C 293.712 56.340,293.833 56.512,293.833 56.756 C 293.833 57.358,294.009 57.667,294.351 57.667 C 294.556 57.667,294.667 57.784,294.667 58.000 C 294.667 58.222,294.778 58.333,295.000 58.333 C 295.271 58.333,295.333 58.444,295.333 58.932 C 295.333 59.381,295.413 59.552,295.651 59.614 C 295.826 59.660,296.008 59.846,296.056 60.028 C 296.103 60.209,296.291 60.397,296.472 60.444 C 296.654 60.492,296.840 60.674,296.886 60.849 C 296.948 61.087,297.119 61.167,297.568 61.167 C 298.056 61.167,298.167 61.229,298.167 61.500 C 298.167 61.722,298.278 61.833,298.500 61.833 C 298.722 61.833,298.833 61.944,298.833 62.167 C 298.833 62.443,298.944 62.500,299.488 62.500 C 300.041 62.500,300.152 62.559,300.197 62.875 C 300.241 63.185,300.370 63.259,300.941 63.300 C 301.461 63.338,301.653 63.431,301.717 63.675 C 301.788 63.947,301.950 64.000,302.715 64.000 C 303.488 64.000,303.641 64.051,303.715 64.333 C 303.796 64.644,303.942 64.667,305.901 64.667 C 307.889 64.667,308.000 64.684,308.000 65.000 C 308.000 65.321,308.111 65.333,311.083 65.333 C 314.056 65.333,314.167 65.321,314.167 65.000 C 314.167 64.652,315.285 64.586,319.875 64.665 C 321.076 64.686,321.167 64.664,321.167 64.344 C 321.167 64.155,321.260 63.995,321.375 63.989 C 321.490 63.983,322.277 63.988,323.125 63.999 C 324.565 64.018,324.667 63.997,324.667 63.684 C 324.667 63.390,324.792 63.343,325.708 63.300 C 326.644 63.255,326.755 63.212,326.803 62.875 C 326.837 62.634,326.971 62.500,327.178 62.500 C 327.690 62.500,327.679 54.349,327.167 54.215 C 326.982 54.167,326.833 53.988,326.833 53.814 C 326.833 53.308,317.181 53.327,317.048 53.833 C 316.965 54.153,316.821 54.167,313.500 54.167 C 310.179 54.167,310.035 54.153,309.952 53.833 C 309.877 53.546,309.724 53.500,308.849 53.500 C 307.944 53.500,307.833 53.464,307.833 53.167 C 307.833 52.889,307.722 52.833,307.167 52.833 C 306.611 52.833,306.500 52.778,306.500 52.500 C 306.500 52.281,306.389 52.167,306.177 52.167 C 305.923 52.167,305.842 52.031,305.802 51.542 C 305.764 51.082,305.651 50.873,305.375 50.752 C 305.053 50.611,305.000 50.461,305.000 49.695 C 305.000 48.942,304.948 48.788,304.667 48.715 C 304.397 48.645,304.333 48.488,304.333 47.897 L 304.333 47.167 316.583 47.167 L 328.833 47.167 328.833 40.984 C 328.833 34.942,328.826 34.800,328.500 34.715 C 328.214 34.640,328.167 34.488,328.167 33.632 C 328.167 32.776,328.120 32.623,327.833 32.548 C 327.551 32.475,327.500 32.321,327.500 31.548 C 327.500 30.776,327.449 30.622,327.167 30.548 C 326.907 30.480,326.833 30.321,326.833 29.825 C 326.833 29.336,326.757 29.165,326.500 29.083 C 326.317 29.025,326.167 28.833,326.167 28.655 C 326.167 28.423,326.051 28.333,325.750 28.333 C 325.375 28.333,325.333 28.267,325.333 27.667 C 325.333 27.111,325.278 27.000,325.000 27.000 C 324.778 27.000,324.667 26.889,324.667 26.667 C 324.667 26.444,324.556 26.333,324.333 26.333 C 324.106 26.333,324.000 26.222,324.000 25.984 C 324.000 25.781,323.867 25.601,323.682 25.552 C 323.507 25.507,323.327 25.326,323.281 25.151 C 323.235 24.976,323.083 24.833,322.944 24.833 C 322.804 24.833,322.642 24.683,322.583 24.500 C 322.501 24.241,322.331 24.167,321.822 24.167 C 321.278 24.167,321.167 24.110,321.167 23.833 C 321.167 23.618,321.056 23.500,320.853 23.500 C 320.679 23.500,320.500 23.351,320.452 23.167 C 320.377 22.879,320.224 22.833,319.349 22.833 C 318.377 22.833,318.333 22.816,318.333 22.417 C 318.333 22.019,318.288 22.000,317.353 22.000 C 316.512 22.000,316.360 21.952,316.285 21.667 C 316.150 21.150,304.500 21.142,304.500 21.659 M352.215 21.667 C 352.145 21.936,351.988 22.000,351.397 22.000 C 350.729 22.000,350.667 22.036,350.667 22.417 C 350.667 22.792,350.600 22.833,350.000 22.833 C 349.454 22.833,349.333 22.891,349.333 23.153 C 349.333 24.032,347.866 23.670,347.800 22.774 L 347.750 22.083 346.042 22.036 L 344.333 21.988 344.333 22.411 C 344.333 22.793,344.269 22.833,343.667 22.833 C 343.111 22.833,343.000 22.889,343.000 23.167 C 343.000 23.438,342.889 23.500,342.401 23.500 C 341.942 23.500,341.782 23.578,341.715 23.833 C 341.659 24.049,341.488 24.167,341.231 24.167 C 340.944 24.167,340.833 24.260,340.833 24.500 C 340.833 24.778,340.722 24.833,340.167 24.833 C 339.617 24.833,339.500 24.890,339.500 25.159 C 339.500 25.441,339.363 25.491,338.458 25.534 C 337.523 25.578,337.411 25.622,337.363 25.958 C 337.318 26.275,337.208 26.333,336.655 26.333 C 336.111 26.333,336.000 26.390,336.000 26.667 C 336.000 26.911,335.889 27.000,335.583 27.000 L 335.167 27.000 335.167 45.236 C 335.167 64.001,335.167 64.000,335.665 64.000 C 335.828 64.000,336.000 64.150,336.048 64.333 C 336.191 64.880,342.783 64.850,342.863 64.302 C 342.912 63.966,342.998 63.941,343.958 63.980 C 344.915 64.020,345.000 63.995,345.000 63.678 C 345.000 63.444,345.107 63.333,345.333 63.333 C 345.578 63.333,345.667 63.222,345.667 62.917 C 345.667 62.542,345.733 62.500,346.331 62.500 C 346.978 62.500,346.999 62.482,347.103 61.833 C 347.183 61.331,347.286 61.167,347.521 61.167 C 347.773 61.167,347.833 61.041,347.833 60.511 C 347.833 60.002,347.908 59.832,348.167 59.750 C 348.496 59.645,348.500 59.498,348.500 47.167 C 348.500 34.836,348.504 34.688,348.833 34.583 C 349.017 34.525,349.167 34.333,349.167 34.155 C 349.167 33.885,349.286 33.833,349.917 33.833 C 350.556 33.833,350.667 33.784,350.667 33.500 C 350.667 33.204,350.778 33.167,351.667 33.167 C 352.556 33.167,352.667 33.130,352.667 32.833 C 352.667 32.518,352.778 32.500,354.739 32.500 C 356.664 32.500,356.818 32.476,356.917 32.167 C 357.007 31.883,357.169 31.833,358.011 31.833 C 358.877 31.833,359.000 31.793,359.000 31.511 C 359.000 31.334,359.150 31.142,359.333 31.083 C 359.656 30.981,359.667 30.831,359.667 26.572 C 359.667 22.278,359.658 22.167,359.333 22.167 C 359.089 22.167,359.000 22.056,359.000 21.750 L 359.000 21.333 355.651 21.333 C 352.442 21.333,352.298 21.347,352.215 21.667 M375.293 21.657 C 375.125 21.896,374.829 21.994,374.158 22.032 C 373.403 22.075,373.222 22.146,373.085 22.458 C 372.957 22.752,372.784 22.833,372.294 22.833 C 371.778 22.833,371.667 22.892,371.667 23.167 C 371.667 23.444,371.556 23.500,371.000 23.500 C 370.444 23.500,370.333 23.556,370.333 23.833 C 370.333 24.061,370.222 24.167,369.984 24.167 C 369.776 24.167,369.600 24.301,369.548 24.500 C 369.500 24.684,369.321 24.833,369.147 24.833 C 368.955 24.833,368.833 24.951,368.833 25.137 C 368.833 25.350,368.646 25.488,368.208 25.596 C 367.639 25.736,367.579 25.806,367.532 26.375 C 367.491 26.865,367.410 27.000,367.157 27.000 C 366.944 27.000,366.833 27.115,366.833 27.333 C 366.833 27.578,366.722 27.667,366.417 27.667 C 366.120 27.667,366.000 27.757,366.000 27.981 C 366.000 28.154,365.851 28.333,365.667 28.382 C 365.402 28.451,365.333 28.609,365.333 29.151 C 365.333 29.722,365.279 29.833,365.000 29.833 C 364.722 29.833,364.667 29.944,364.667 30.500 C 364.667 31.056,364.611 31.167,364.333 31.167 C 364.034 31.167,364.000 31.278,364.000 32.250 C 364.000 33.232,363.968 33.333,363.658 33.333 C 363.332 33.333,363.316 33.423,363.334 35.125 C 363.360 37.609,363.375 37.500,363.003 37.500 C 362.509 37.500,362.486 37.791,362.537 43.333 L 362.583 48.417 362.958 48.581 C 363.317 48.738,363.333 48.832,363.333 50.722 C 363.333 52.558,363.357 52.704,363.667 52.785 C 364.019 52.877,364.048 52.993,364.003 54.125 C 363.979 54.740,364.020 54.833,364.321 54.833 C 364.615 54.833,364.667 54.936,364.667 55.516 C 364.667 56.058,364.735 56.216,365.000 56.285 C 365.261 56.353,365.333 56.512,365.333 57.019 C 365.333 57.556,365.391 57.667,365.667 57.667 C 365.889 57.667,366.000 57.778,366.000 58.000 C 366.000 58.244,366.111 58.333,366.417 58.333 C 366.792 58.333,366.833 58.400,366.833 59.000 C 366.833 59.556,366.889 59.667,367.167 59.667 C 367.411 59.667,367.500 59.778,367.500 60.083 C 367.500 60.384,367.590 60.500,367.822 60.500 C 367.999 60.500,368.192 60.650,368.250 60.833 C 368.308 61.017,368.445 61.167,368.554 61.167 C 368.664 61.167,368.847 61.317,368.961 61.500 C 369.105 61.730,369.350 61.833,369.751 61.833 C 370.222 61.833,370.333 61.897,370.333 62.167 C 370.333 62.443,370.444 62.500,370.988 62.500 C 371.541 62.500,371.652 62.559,371.697 62.875 C 371.739 63.174,371.873 63.260,372.358 63.301 C 372.803 63.338,372.989 63.442,373.054 63.688 C 373.132 63.985,373.258 64.020,374.113 63.980 C 375.002 63.938,375.088 63.965,375.137 64.300 C 375.188 64.655,375.256 64.667,377.242 64.667 C 379.154 64.667,379.300 64.689,379.382 65.000 C 379.517 65.518,384.167 65.518,384.167 65.000 C 384.167 64.684,384.278 64.667,386.266 64.667 C 388.224 64.667,388.370 64.644,388.452 64.333 C 388.525 64.051,388.679 64.000,389.452 64.000 C 390.216 64.000,390.378 63.947,390.449 63.675 C 390.513 63.431,390.706 63.338,391.225 63.300 C 391.797 63.259,391.926 63.185,391.970 62.875 C 392.014 62.567,392.128 62.500,392.611 62.500 C 393.058 62.500,393.219 62.420,393.285 62.167 C 393.333 61.982,393.512 61.833,393.686 61.833 C 393.889 61.833,394.000 61.715,394.000 61.500 C 394.000 61.278,394.111 61.167,394.333 61.167 C 394.556 61.167,394.667 61.056,394.667 60.833 C 394.667 60.589,394.778 60.500,395.083 60.500 C 395.389 60.500,395.500 60.411,395.500 60.167 C 395.500 59.944,395.611 59.833,395.833 59.833 C 396.078 59.833,396.167 59.722,396.167 59.417 C 396.167 59.111,396.256 59.000,396.500 59.000 C 396.722 59.000,396.833 58.889,396.833 58.667 C 396.833 58.444,396.944 58.333,397.167 58.333 C 397.444 58.333,397.500 58.222,397.500 57.667 C 397.500 57.111,397.556 57.000,397.833 57.000 C 398.110 57.000,398.167 56.889,398.167 56.345 C 398.167 55.792,398.225 55.682,398.542 55.637 C 398.852 55.593,398.925 55.463,398.967 54.892 C 399.005 54.372,399.098 54.180,399.342 54.116 C 399.630 54.041,399.667 53.879,399.667 52.682 C 399.667 51.894,399.736 51.333,399.833 51.333 C 399.926 51.333,400.000 50.889,400.000 50.333 C 400.000 49.778,399.926 49.333,399.833 49.333 C 399.742 49.333,399.667 49.183,399.667 49.000 C 399.667 48.817,399.742 48.667,399.833 48.667 C 399.941 48.667,400.000 46.694,400.000 43.083 C 400.000 39.472,399.941 37.500,399.833 37.500 C 399.742 37.500,399.667 37.313,399.667 37.083 C 399.667 36.854,399.760 36.666,399.875 36.664 C 400.014 36.662,400.000 36.608,399.833 36.500 C 399.667 36.392,399.653 36.338,399.792 36.336 C 399.930 36.334,400.000 36.054,400.000 35.500 C 400.000 35.042,399.925 34.667,399.833 34.667 C 399.737 34.667,399.667 34.142,399.667 33.426 C 399.667 32.392,399.614 32.148,399.347 31.961 C 399.162 31.832,399.003 31.492,398.972 31.160 C 398.929 30.709,398.835 30.572,398.542 30.530 C 398.217 30.484,398.167 30.377,398.167 29.738 C 398.167 29.111,398.117 29.000,397.833 29.000 C 397.562 29.000,397.500 28.889,397.500 28.401 C 397.500 27.942,397.422 27.782,397.167 27.715 C 396.982 27.667,396.833 27.488,396.833 27.314 C 396.833 27.111,396.715 27.000,396.500 27.000 C 396.278 27.000,396.167 26.889,396.167 26.667 C 396.167 26.448,396.056 26.333,395.845 26.333 C 395.638 26.333,395.504 26.199,395.470 25.958 C 395.436 25.717,395.283 25.564,395.042 25.530 C 394.801 25.496,394.667 25.362,394.667 25.155 C 394.667 24.944,394.552 24.833,394.333 24.833 C 394.111 24.833,394.000 24.722,394.000 24.500 C 394.000 24.222,393.889 24.167,393.333 24.167 C 392.778 24.167,392.667 24.111,392.667 23.833 C 392.667 23.589,392.556 23.500,392.250 23.500 C 391.944 23.500,391.833 23.411,391.833 23.167 C 391.833 22.871,391.722 22.833,390.845 22.833 C 389.947 22.833,389.852 22.799,389.803 22.458 C 389.755 22.122,389.644 22.078,388.708 22.034 C 387.809 21.991,387.667 21.940,387.667 21.663 C 387.667 21.160,375.645 21.153,375.293 21.657 M335.958 54.125 C 335.934 58.869,335.914 54.987,335.914 45.500 C 335.914 36.012,335.934 32.131,335.958 36.875 C 335.983 41.619,335.983 49.381,335.958 54.125 M188.845 32.500 C 190.056 32.500,190.167 32.528,190.167 32.833 C 190.167 33.078,190.278 33.167,190.583 33.167 C 190.889 33.167,191.000 33.256,191.000 33.500 C 191.000 33.715,191.111 33.833,191.314 33.833 C 191.488 33.833,191.667 33.982,191.715 34.167 C 191.763 34.350,191.922 34.500,192.068 34.500 C 192.226 34.500,192.333 34.641,192.333 34.849 C 192.333 35.058,192.467 35.233,192.667 35.285 C 192.919 35.351,193.000 35.512,193.000 35.952 C 193.000 36.391,193.081 36.552,193.333 36.618 C 193.659 36.704,193.667 36.846,193.667 43.000 C 193.667 49.154,193.659 49.296,193.333 49.382 C 193.046 49.457,193.000 49.609,193.000 50.484 C 193.000 51.389,192.964 51.500,192.667 51.500 C 192.444 51.500,192.333 51.611,192.333 51.833 C 192.333 52.056,192.222 52.167,192.000 52.167 C 191.778 52.167,191.667 52.278,191.667 52.500 C 191.667 52.722,191.556 52.833,191.333 52.833 C 191.111 52.833,191.000 52.944,191.000 53.167 C 191.000 53.446,190.889 53.500,190.318 53.500 C 189.776 53.500,189.618 53.568,189.548 53.833 C 189.466 54.147,189.321 54.167,187.075 54.167 C 184.836 54.167,184.683 54.146,184.583 53.833 C 184.493 53.549,184.331 53.500,183.489 53.500 L 182.500 53.500 182.500 45.083 C 182.500 36.778,182.504 36.667,182.833 36.667 C 183.130 36.667,183.167 36.556,183.167 35.667 C 183.167 34.778,183.204 34.667,183.500 34.667 C 183.744 34.667,183.833 34.556,183.833 34.250 C 183.833 33.938,183.921 33.833,184.182 33.833 C 184.391 33.833,184.566 33.699,184.618 33.500 C 184.667 33.316,184.846 33.167,185.019 33.167 C 185.222 33.167,185.333 33.049,185.333 32.833 C 185.333 32.537,185.444 32.500,186.333 32.500 C 187.253 32.500,187.335 32.470,187.356 32.125 L 187.379 31.750 187.451 32.125 C 187.519 32.476,187.607 32.500,188.845 32.500 M312.167 32.167 C 312.167 32.444,312.278 32.500,312.833 32.500 C 313.389 32.500,313.500 32.556,313.500 32.833 C 313.500 33.056,313.611 33.167,313.833 33.167 C 314.056 33.167,314.167 33.278,314.167 33.500 C 314.167 33.744,314.278 33.833,314.583 33.833 C 314.960 33.833,315.000 33.899,315.000 34.516 C 315.000 35.058,315.068 35.216,315.333 35.285 C 315.615 35.359,315.667 35.512,315.667 36.285 C 315.667 37.058,315.718 37.211,316.000 37.285 C 316.269 37.355,316.333 37.512,316.333 38.103 L 316.333 38.833 310.333 38.833 L 304.333 38.833 304.333 37.750 C 304.333 36.778,304.368 36.667,304.667 36.667 C 304.943 36.667,305.000 36.556,305.000 36.019 C 305.000 35.515,305.073 35.353,305.329 35.286 C 305.562 35.225,305.689 35.002,305.767 34.517 C 305.849 33.999,305.952 33.833,306.188 33.833 C 306.389 33.833,306.500 33.715,306.500 33.500 C 306.500 33.278,306.611 33.167,306.833 33.167 C 307.056 33.167,307.167 33.056,307.167 32.833 C 307.167 32.556,307.278 32.500,307.833 32.500 C 308.389 32.500,308.500 32.444,308.500 32.167 C 308.500 31.854,308.611 31.833,310.333 31.833 C 312.056 31.833,312.167 31.854,312.167 32.167 M233.048 32.833 C 233.115 33.089,233.276 33.167,233.734 33.167 C 234.222 33.167,234.333 33.229,234.333 33.500 C 234.333 33.718,234.444 33.833,234.655 33.833 C 234.862 33.833,234.996 33.967,235.030 34.208 C 235.064 34.449,235.217 34.602,235.458 34.637 C 235.699 34.671,235.833 34.805,235.833 35.012 C 235.833 35.222,235.948 35.333,236.167 35.333 C 236.463 35.333,236.500 35.444,236.500 36.333 C 236.500 37.222,236.537 37.333,236.833 37.333 C 237.160 37.333,237.167 37.444,237.167 42.647 C 237.167 47.821,237.158 47.963,236.833 48.048 C 236.537 48.126,236.500 48.276,236.500 49.382 C 236.500 50.488,236.463 50.638,236.167 50.715 C 235.902 50.784,235.833 50.942,235.833 51.484 C 235.833 52.101,235.793 52.167,235.417 52.167 C 235.111 52.167,235.000 52.256,235.000 52.500 C 235.000 52.722,234.889 52.833,234.667 52.833 C 234.444 52.833,234.333 52.944,234.333 53.167 C 234.333 53.444,234.222 53.500,233.667 53.500 C 233.111 53.500,233.000 53.556,233.000 53.833 C 233.000 54.152,232.889 54.167,230.500 54.167 C 228.474 54.167,228.000 54.123,228.000 53.934 C 228.000 53.627,227.631 53.500,226.736 53.500 L 226.000 53.500 226.000 44.750 C 226.000 37.382,226.037 36.000,226.232 36.000 C 226.499 36.000,226.667 35.646,226.667 35.081 C 226.667 34.836,226.791 34.650,227.000 34.583 C 227.183 34.525,227.333 34.333,227.333 34.155 C 227.333 33.972,227.448 33.833,227.599 33.833 C 227.745 33.833,227.904 33.683,227.952 33.500 C 228.000 33.316,228.179 33.167,228.353 33.167 C 228.556 33.167,228.667 33.049,228.667 32.833 C 228.667 32.517,228.778 32.500,230.814 32.500 C 232.821 32.500,232.967 32.522,233.048 32.833 M383.548 32.833 C 383.618 33.098,383.776 33.167,384.318 33.167 C 384.889 33.167,385.000 33.221,385.000 33.500 C 385.000 33.722,385.111 33.833,385.333 33.833 C 385.602 33.833,385.667 33.944,385.667 34.407 C 385.667 34.778,385.777 35.058,385.978 35.199 C 386.149 35.319,386.344 35.670,386.412 35.979 C 386.488 36.323,386.657 36.572,386.851 36.623 C 387.139 36.698,387.167 36.884,387.167 38.769 C 387.167 40.722,387.185 40.833,387.500 40.833 C 387.819 40.833,387.833 40.944,387.833 43.333 C 387.833 45.722,387.819 45.833,387.500 45.833 C 387.185 45.833,387.167 45.944,387.167 47.905 C 387.167 49.927,387.158 49.978,386.792 50.030 C 386.480 50.074,386.408 50.203,386.365 50.792 C 386.324 51.364,386.252 51.500,385.990 51.500 C 385.778 51.500,385.667 51.614,385.667 51.833 C 385.667 52.056,385.556 52.167,385.333 52.167 C 385.111 52.167,385.000 52.278,385.000 52.500 C 385.000 52.722,384.889 52.833,384.667 52.833 C 384.448 52.833,384.333 52.944,384.333 53.158 C 384.333 53.460,384.184 53.485,382.105 53.533 C 379.474 53.592,379.333 53.573,379.333 53.154 C 379.333 52.959,379.219 52.833,379.040 52.833 C 378.879 52.833,378.653 52.683,378.539 52.500 C 378.424 52.317,378.219 52.167,378.082 52.167 C 377.944 52.167,377.833 52.018,377.833 51.833 C 377.833 51.611,377.722 51.500,377.500 51.500 C 377.256 51.500,377.167 51.389,377.167 51.083 C 377.167 50.778,377.078 50.667,376.833 50.667 C 376.480 50.667,376.450 50.554,376.497 49.375 C 376.521 48.769,376.477 48.667,376.193 48.667 C 375.729 48.667,375.745 48.910,375.796 42.834 C 375.841 37.485,375.851 37.333,376.171 37.333 C 376.442 37.333,376.500 37.219,376.500 36.686 C 376.500 36.179,376.572 36.020,376.833 35.952 C 377.086 35.886,377.167 35.724,377.167 35.285 C 377.167 34.839,377.246 34.685,377.512 34.615 C 377.703 34.565,377.899 34.369,377.948 34.179 C 378.000 33.984,378.175 33.833,378.353 33.833 C 378.556 33.833,378.667 33.715,378.667 33.500 C 378.667 33.229,378.778 33.167,379.266 33.167 C 379.724 33.167,379.885 33.089,379.952 32.833 C 380.032 32.527,380.179 32.500,381.750 32.500 C 383.321 32.500,383.468 32.527,383.548 32.833 M194.458 44.458 C 194.429 45.627,194.406 44.671,194.406 42.333 C 194.406 39.996,194.429 39.040,194.458 40.208 C 194.487 41.377,194.487 43.290,194.458 44.458 M149.667 50.000 C 149.667 53.348,149.653 53.500,149.345 53.500 C 149.167 53.500,148.975 53.650,148.917 53.833 C 148.838 54.080,148.664 54.167,148.250 54.167 C 147.492 54.167,146.833 54.436,146.833 54.746 C 146.833 54.961,146.497 55.000,144.667 55.000 C 142.644 55.000,142.500 54.979,142.500 54.681 C 142.500 54.439,142.339 54.335,141.833 54.250 L 141.167 54.137 141.167 53.220 C 141.167 52.442,141.116 52.289,140.833 52.215 C 140.624 52.160,140.500 51.988,140.500 51.750 C 140.500 51.512,140.624 51.340,140.833 51.285 C 141.130 51.208,141.167 51.058,141.167 49.932 C 141.167 48.778,141.196 48.667,141.500 48.667 C 141.744 48.667,141.833 48.556,141.833 48.250 C 141.833 47.875,141.900 47.833,142.500 47.833 C 143.056 47.833,143.167 47.778,143.167 47.500 C 143.167 47.193,143.278 47.167,144.583 47.167 C 145.889 47.167,146.000 47.141,146.000 46.833 C 146.000 46.520,146.111 46.500,147.833 46.500 L 149.667 46.500 149.667 50.000 M128.303 54.407 L 127.929 54.750 128.215 54.404 C 128.445 54.124,128.507 53.658,128.536 51.987 L 128.572 49.917 128.625 51.990 C 128.675 53.960,128.659 54.080,128.303 54.407 " stroke="none" fill="#444444" fill-rule="evenodd"></path><path id="path4" d="" stroke="none" fill="#449870" fill-rule="evenodd"></path></g></svg>